<svg width="21" height="21" viewBox="0 0 21 21" fill="none" xmlns="http://www.w3.org/2000/svg">
<path d="M3.41418 0.585777C2.63342 -0.195259 1.36682 -0.195259 0.58606 0.585777C-0.19519 1.36681 -0.19519 2.63314 0.58606 3.41421L7.30334 10.1316L0.585571 16.8492C-0.19519 17.6303 -0.19519 18.8966 0.585571 19.6777C1.36682 20.4587 2.63293 20.4587 3.41418 19.6777L10.132 12.96L16.8492 19.6777C17.6305 20.4587 18.8966 20.4587 19.6779 19.6777C20.4586 18.8966 20.4586 17.6303 19.6779 16.8492L12.9601 10.1316L19.6774 3.41421C20.4586 2.63314 20.4586 1.36681 19.6774 0.585777C18.8966 -0.195259 17.63 -0.195259 16.8492 0.585777L10.132 7.30322L3.41418 0.585777Z" fill="white"/>
</svg>
