<svg width="20" height="20" viewBox="0 0 20 20" fill="none" xmlns="http://www.w3.org/2000/svg">
<path d="M3.3698 0.578162C2.59919 -0.192721 1.34905 -0.192721 0.578441 0.578162C-0.192653 1.34904 -0.192653 2.59891 0.578441 3.36982L7.2084 9.99986L0.577959 16.6302C-0.192653 17.4011 -0.192653 18.6509 0.577959 19.4218C1.34905 20.1927 2.59871 20.1927 3.3698 19.4218L10.0002 12.7915L16.6302 19.4218C17.4013 20.1927 18.6509 20.1927 19.422 19.4218C20.1927 18.6509 20.1927 17.4011 19.422 16.6302L12.7916 9.99986L19.4216 3.36982C20.1927 2.59891 20.1927 1.34904 19.4216 0.578162C18.6509 -0.192721 17.4008 -0.192721 16.6302 0.578162L10.0002 7.20827L3.3698 0.578162Z" fill="#E0E0E0"/>
</svg>
