<svg width="17" height="15" viewBox="0 0 17 15" fill="none" xmlns="http://www.w3.org/2000/svg">
<path d="M13.976 14.9983H2.54022C1.14267 14.9983 0.015625 13.8777 0.015625 12.4881C0.015625 11.0986 1.14267 9.97803 2.54022 9.97803H13.976C15.3735 9.97803 16.5006 11.0986 16.5006 12.4881C16.5006 13.8627 15.3585 14.9983 13.976 14.9983Z" fill="#54BD82"/>
<path d="M11.7962 13.728L6.16098 3.80704C5.46972 2.61174 5.87546 1.07281 7.07764 0.385513L7.1077 0.370572C8.30988 -0.316721 9.82764 0.101631 10.5189 1.31186L16.1541 11.2328C16.8454 12.4281 16.4397 13.967 15.2375 14.6543L15.2225 14.6693C14.0203 15.3566 12.4875 14.9382 11.7962 13.728Z" fill="#009183"/>
<path d="M4.76483 13.7133L10.5353 3.79234C11.2416 2.5821 10.8208 1.04317 9.60363 0.340931C8.38642 -0.361304 6.83861 0.0570488 6.13232 1.26728L0.346803 11.1882C-0.359481 12.3984 0.0612837 13.9374 1.2785 14.6396C2.49571 15.3419 4.05855 14.9235 4.76483 13.7133Z" fill="#00A651"/>
<path d="M8.61066 14.9983H2.52459C1.12705 14.9983 0 13.8777 0 12.4881C0 11.0986 1.12705 9.97803 2.52459 9.97803H8.61066C10.0082 9.97803 10.0082 14.9983 8.61066 14.9983Z" fill="#54BD82"/>
</svg>
