<svg width="946" height="261" viewBox="0 0 946 261" fill="none" xmlns="http://www.w3.org/2000/svg">
<rect width="945.926" height="259.637" fill="black" fill-opacity="0" transform="translate(0 1)"/>
<path d="M20.3573 224.216C24.2453 224.216 27.0713 221.282 27.0713 217.7C27.0713 214.082 24.2813 211.184 20.3933 211.184C16.5053 211.184 13.6793 214.118 13.6793 217.7C13.6793 221.318 16.4693 224.216 20.3573 224.216ZM20.3933 221.66C18.1613 221.66 16.5773 219.86 16.5773 217.7C16.5773 215.504 18.1253 213.74 20.3573 213.74C22.5893 213.74 24.1733 215.54 24.1733 217.7C24.1733 219.896 22.6253 221.66 20.3933 221.66ZM32.9863 224.18C35.0743 224.18 36.6763 223.208 36.6763 221.066C36.6763 219.266 35.1103 218.618 33.7603 218.168C32.7163 217.808 31.7983 217.556 31.7983 217.016C31.7983 216.602 32.1403 216.314 32.8063 216.314C33.5083 216.314 34.4623 216.656 35.4163 217.214L36.4603 215.324C35.4163 214.622 34.0843 214.208 32.8603 214.208C30.9163 214.208 29.3323 215.306 29.3323 217.268C29.3323 219.176 30.8623 219.806 32.2123 220.202C33.2743 220.526 34.2103 220.724 34.2103 221.318C34.2103 221.786 33.8503 222.074 33.0583 222.074C32.1583 222.074 31.0603 221.678 30.0163 220.922L28.8463 222.722C30.1243 223.73 31.6363 224.18 32.9863 224.18ZM39.1235 224H41.8595V210.86H39.1235V224ZM49.5231 224.216C52.5291 224.216 54.7611 221.966 54.7611 219.194C54.7611 216.386 52.5471 214.172 49.5591 214.172C46.5531 214.172 44.3211 216.422 44.3211 219.194C44.3211 222.002 46.5351 224.216 49.5231 224.216ZM49.5591 221.858C48.0471 221.858 47.0211 220.616 47.0211 219.194C47.0211 217.736 47.9571 216.53 49.5231 216.53C51.0351 216.53 52.0611 217.772 52.0611 219.194C52.0611 220.652 51.1251 221.858 49.5591 221.858Z" fill="#808080"/>
<path d="M895.12 227H897.892V223.148L899.35 221.636L903.256 227H906.586L901.222 219.746L906.352 214.4H903.004L897.892 219.908V214.4H895.12V227ZM909.748 229.934C911.386 229.934 912.178 229.196 912.916 227.234L916.624 217.352H913.78L911.674 223.922L909.478 217.352H906.58L910.36 227.036C910.126 227.522 909.874 227.666 909.406 227.666C909.046 227.666 908.596 227.504 908.236 227.288L907.318 229.268C908.02 229.682 908.758 229.934 909.748 229.934ZM918.651 216.29H921.531V213.86H918.651V216.29ZM918.723 227H921.459V217.352H918.723V227ZM927.323 227.072H929.807L933.605 217.352H930.761L928.583 223.814L926.423 217.352H923.525L927.323 227.072Z" fill="#808080"/>
<path d="M908 199L907.713 187.457L897.86 193.477L908 199ZM34.8712 199.491C35.3205 198.694 35.7737 197.899 36.2307 197.107L34.4982 196.107C34.0379 196.905 33.5814 197.706 33.1288 198.509L34.8712 199.491ZM39.0188 192.381C39.9634 190.815 40.9231 189.259 41.8979 187.713L40.206 186.646C39.2243 188.204 38.2577 189.771 37.3063 191.348L39.0188 192.381ZM44.8671 183.102C45.8717 181.575 46.8911 180.057 47.9251 178.549L46.2757 177.418C45.2344 178.937 44.2078 180.465 43.1962 182.003L44.8671 183.102ZM51.068 174.058C52.1284 172.573 53.2031 171.097 54.2921 169.631L52.6865 168.438C51.5901 169.914 50.508 171.4 49.4403 172.896L51.068 174.058ZM57.6013 165.262C58.7185 163.815 59.8496 162.377 60.9946 160.95L59.4344 159.698C58.2817 161.136 57.143 162.583 56.0183 164.039L57.6013 165.262ZM64.4709 156.695C65.6412 155.289 66.825 153.892 68.0223 152.505L66.5084 151.199C65.3033 152.595 64.1117 154 62.9337 155.416L64.4709 156.695ZM71.6309 148.399C72.8469 147.04 74.076 145.69 75.3179 144.349L73.8508 142.99C72.601 144.339 71.3641 145.698 70.1403 147.066L71.6309 148.399ZM79.0823 140.356C80.3498 139.034 81.6301 137.721 82.9229 136.418L81.5032 135.01C80.2024 136.321 78.9142 137.641 77.6388 138.971L79.0823 140.356ZM86.8364 132.54C88.1377 131.272 89.4511 130.013 90.7763 128.763L89.4041 127.308C88.071 128.565 86.7497 129.832 85.4406 131.108L86.8364 132.54ZM94.7874 125.041C96.1362 123.81 97.4968 122.587 98.8688 121.374L97.5441 119.876C96.1641 121.096 94.7957 122.325 93.4389 123.564L94.7874 125.041ZM103.019 117.763C104.414 116.568 105.821 115.382 107.238 114.206L105.961 112.667C104.535 113.85 103.121 115.042 101.718 116.243L103.019 117.763ZM111.471 110.747C112.889 109.606 114.317 108.475 115.756 107.352L114.525 105.775C113.079 106.904 111.643 108.042 110.218 109.189L111.471 110.747ZM120.103 104.011C121.562 102.906 123.032 101.81 124.512 100.723L123.328 99.1114C121.841 100.204 120.363 101.306 118.896 102.416L120.103 104.011ZM128.983 97.4894C130.471 96.4287 131.969 95.3769 133.477 94.3338L132.34 92.689C130.824 93.7373 129.318 94.7945 127.822 95.8606L128.983 97.4894ZM137.989 91.2591C139.502 90.2428 141.024 89.2352 142.556 88.2361L141.463 86.561C139.924 87.5649 138.394 88.5775 136.873 89.5988L137.989 91.2591ZM147.178 85.265C148.728 84.2833 150.287 83.3102 151.855 82.3457L150.808 80.6422C149.232 81.6112 147.666 82.589 146.108 83.5754L147.178 85.265ZM156.582 79.4804C158.14 78.5499 159.706 77.6278 161.28 76.714L160.276 74.9843C158.694 75.9023 157.121 76.8286 155.556 77.7634L156.582 79.4804ZM166.028 73.9977C167.618 73.1006 169.217 72.2118 170.824 71.3314L169.863 69.5774C168.249 70.4617 166.643 71.3545 165.045 72.2556L166.028 73.9977ZM175.669 68.7152C177.291 67.8515 178.922 66.9961 180.56 66.1491L179.642 64.3725C177.996 65.2232 176.359 66.0822 174.729 66.9497L175.669 68.7152ZM185.452 63.656C187.077 62.8401 188.708 62.0323 190.347 61.2325L189.47 59.4352C187.824 60.2382 186.186 61.0495 184.555 61.8688L185.452 63.656ZM195.285 58.8575C196.938 58.0738 198.597 57.2983 200.264 56.5308L199.428 54.7141C197.754 55.4847 196.088 56.2634 194.428 57.0503L195.285 58.8575ZM205.285 54.2526C206.965 53.5012 208.652 52.7579 210.346 52.0227L209.55 50.1881C207.849 50.9262 206.156 51.6724 204.469 52.4268L205.285 54.2526ZM215.369 49.8742C217.047 49.167 218.731 48.4676 220.421 47.776L219.663 45.925C217.967 46.6192 216.276 47.3213 214.592 48.0312L215.369 49.8742ZM225.509 45.7247C227.211 45.0487 228.919 44.3806 230.633 43.7203L229.914 41.854C228.194 42.5168 226.48 43.1874 224.771 43.8659L225.509 45.7247ZM235.792 41.7627C237.513 41.1199 239.239 40.4849 240.97 39.8576L240.289 37.9772C238.551 38.6067 236.819 39.244 235.092 39.8892L235.792 41.7627ZM246.115 38.0224C247.835 37.4182 249.56 36.8217 251.291 36.2327L250.647 34.3393C248.91 34.9304 247.178 35.5291 245.452 36.1354L246.115 38.0224ZM256.498 34.4884C258.239 33.9146 259.984 33.3483 261.735 32.7896L261.127 30.8843C259.37 31.4449 257.618 32.0131 255.872 32.589L256.498 34.4884ZM267.001 31.1364C268.751 30.5958 270.507 30.0627 272.267 29.5371L271.694 27.6207C269.929 28.1481 268.167 28.683 266.411 29.2254L267.001 31.1364ZM277.514 27.9962C279.267 27.4899 281.025 26.9911 282.787 26.4995L282.25 24.5731C280.482 25.0662 278.718 25.5667 276.959 26.0747L277.514 27.9962ZM288.086 25.0472C289.856 24.5704 291.631 24.101 293.409 23.6391L292.906 21.7033C291.122 22.1668 289.342 22.6377 287.566 23.116L288.086 25.0472ZM298.757 22.2752C300.532 21.8307 302.312 21.3935 304.095 20.9636L303.626 19.0193C301.837 19.4506 300.052 19.8892 298.271 20.3351L298.757 22.2752ZM309.422 19.7033C311.201 19.2905 312.984 18.8848 314.77 18.4864L314.335 16.5343C312.543 16.934 310.755 17.3409 308.97 17.7551L309.422 19.7033ZM320.139 17.3127C321.932 16.9286 323.728 16.5518 325.528 16.1822L325.125 14.2231C323.32 14.5938 321.519 14.9718 319.72 15.357L320.139 17.3127ZM330.935 15.095C332.731 14.7418 334.53 14.3957 336.332 14.0567L335.962 12.0912C334.155 12.4312 332.35 12.7783 330.549 13.1326L330.935 15.095ZM341.72 13.0658C343.519 12.7425 345.321 12.4264 347.125 12.1173L346.787 10.146C344.978 10.456 343.171 10.7731 341.366 11.0973L341.72 13.0658ZM352.546 11.2112C354.355 10.9163 356.167 10.6284 357.982 10.3476L357.676 8.37112C355.856 8.65273 354.039 8.94145 352.224 9.23726L352.546 11.2112ZM363.432 9.52643C365.244 9.26088 367.058 9.00234 368.875 8.75082L368.6 6.76973C366.779 7.02197 364.959 7.28125 363.142 7.54758L363.432 9.52643ZM374.308 8.0201C376.122 7.7835 377.937 7.55386 379.755 7.33119L379.511 5.34603C377.689 5.56934 375.868 5.79963 374.05 6.03691L374.308 8.0201ZM385.212 6.68408C387.033 6.47535 388.856 6.27359 390.681 6.0788L390.469 4.0901C388.639 4.28544 386.811 4.48777 384.985 4.69709L385.212 6.68408ZM396.16 5.51534C397.983 5.33495 399.808 5.1615 401.635 4.99498L401.453 3.00324C399.621 3.17022 397.791 3.34416 395.963 3.52506L396.16 5.51534ZM407.101 4.5177C408.924 4.3655 410.749 4.2202 412.575 4.08179L412.424 2.08752C410.593 2.2263 408.763 2.37201 406.934 2.52463L407.101 4.5177ZM418.057 3.68727C419.885 3.56267 421.714 3.44495 423.545 3.33414L423.424 1.3378C421.589 1.44891 419.754 1.56695 417.921 1.6919L418.057 3.68727ZM429.04 3.02241C430.87 2.92551 432.701 2.83549 434.534 2.75237L434.443 0.754422C432.606 0.837778 430.769 0.928041 428.934 1.02521L429.04 3.02241ZM440.02 2.5241C441.849 2.45487 443.68 2.39249 445.51 2.33698L445.45 0.337896C443.614 0.393565 441.779 0.45611 439.944 0.525531L440.02 2.5241ZM451.005 2.191C452.836 2.1492 454.669 2.11426 456.501 2.08618L456.471 0.0864194C454.633 0.114575 452.796 0.14961 450.959 0.191524L451.005 2.191ZM462 2.02253C463.833 2.00817 465.666 2.00068 467.5 2.00004L467.499 4.29153e-05C465.661 0.000680566 463.823 0.00819665 461.985 0.0225902L462 2.02253ZM472.995 2.01868C474.827 2.03175 476.66 2.05166 478.491 2.07843L478.521 0.0786415C476.684 0.0518033 474.847 0.0318351 473.01 0.0187357L472.995 2.01868ZM483.987 2.17928C485.819 2.21975 487.65 2.26707 489.481 2.32124L489.541 0.322119C487.704 0.267796 485.868 0.220346 484.031 0.179767L483.987 2.17928ZM494.974 2.50433C496.805 2.57222 498.635 2.64697 500.465 2.72857L500.554 0.730557C498.719 0.64873 496.884 0.57378 495.048 0.505704L494.974 2.50433ZM505.959 2.99431C507.79 3.08977 509.621 3.1921 511.45 3.3013L511.569 1.30486C509.735 1.19535 507.899 1.09274 506.064 0.997024L505.959 2.99431ZM516.937 3.64956C518.765 3.77252 520.592 3.90236 522.418 4.03907L522.567 2.04465C520.736 1.90756 518.904 1.77736 517.071 1.65407L516.937 3.64956ZM527.893 4.46986C529.718 4.62033 531.541 4.77769 533.363 4.94192L533.542 2.95C531.715 2.78531 529.887 2.62752 528.058 2.47663L527.893 4.46986ZM538.844 5.45716C540.67 5.63586 542.495 5.8215 544.319 6.01407L544.529 4.02513C542.7 3.83202 540.87 3.64587 539.039 3.46667L538.844 5.45716ZM549.785 6.61257C551.605 6.81901 553.424 7.03238 555.242 7.25268L555.482 5.26722C553.66 5.04629 551.836 4.83232 550.01 4.62531L549.785 6.61257ZM560.689 7.93441C562.503 8.16859 564.315 8.4097 566.125 8.65775L566.397 6.67626C564.581 6.42751 562.764 6.18571 560.945 5.95087L560.689 7.93441ZM571.579 9.42674C573.396 9.6903 575.212 9.96088 577.025 10.2385L577.328 8.26152C575.509 7.98312 573.689 7.71176 571.866 7.44745L571.579 9.42674ZM582.458 11.0924C584.268 11.384 586.074 11.6827 587.879 11.9884L588.213 10.0165C586.403 9.70989 584.591 9.41035 582.777 9.11786L582.458 11.0924ZM593.285 12.9265C595.085 13.2463 596.882 13.5731 598.677 13.9069L599.043 11.9406C597.242 11.6058 595.44 11.2781 593.635 10.9574L593.285 12.9265ZM604.088 14.9361C605.892 15.2868 607.693 15.6448 609.492 16.0098L609.89 14.0498C608.086 13.6836 606.279 13.3247 604.47 12.9728L604.088 14.9361ZM614.879 17.1264C616.672 17.5058 618.462 17.8923 620.248 18.2859L620.679 16.3327C618.886 15.9379 617.091 15.5502 615.293 15.1697L614.879 17.1264ZM625.599 19.4882C627.38 19.8961 629.157 20.3112 630.932 20.7334L631.395 18.7878C629.615 18.3642 627.832 17.9479 626.046 17.5387L625.599 19.4882ZM636.286 22.0319C638.071 22.473 639.853 22.9213 641.632 23.377L642.128 21.4396C640.344 20.9825 638.557 20.5327 636.766 20.0903L636.286 22.0319ZM646.956 24.7658C648.727 25.2361 650.494 25.7136 652.258 26.1984L652.788 24.27C651.019 23.7836 649.246 23.3045 647.469 22.8328L646.956 24.7658ZM657.537 27.6748C659.292 28.1743 661.044 28.681 662.792 29.195L663.356 27.2763C661.603 26.7606 659.845 26.2522 658.084 25.7512L657.537 27.6748ZM668.075 30.7747C669.835 31.3098 671.591 31.8525 673.343 32.4025L673.942 30.4944C672.184 29.9425 670.422 29.3981 668.656 28.8612L668.075 30.7747ZM678.584 34.0752C680.327 34.6402 682.065 35.2127 683.799 35.7927L684.433 33.8961C682.694 33.3141 680.95 32.7396 679.201 32.1727L678.584 34.0752ZM688.985 37.5551C690.709 38.1501 692.428 38.7525 694.143 39.3624L694.813 37.4781C693.093 36.866 691.367 36.2615 689.637 35.6645L688.985 37.5551ZM699.337 41.2386C701.064 41.8721 702.787 42.5134 704.504 43.1623L705.211 41.2915C703.488 40.6402 701.759 39.9967 700.025 39.3608L699.337 41.2386ZM709.639 45.1322C711.345 45.7965 713.046 46.4685 714.742 47.1482L715.486 45.2918C713.784 44.6096 712.077 43.9352 710.365 43.2684L709.639 45.1322ZM719.811 49.2103C721.499 49.9068 723.181 50.611 724.857 51.3229L725.639 49.482C723.956 48.7675 722.268 48.0606 720.574 47.3616L719.811 49.2103ZM729.931 53.5097C731.617 54.2466 733.296 54.9914 734.969 55.7441L735.79 53.9202C734.11 53.1645 732.424 52.4169 730.733 51.6772L729.931 53.5097ZM739.97 58.026C741.63 58.7945 743.284 59.571 744.932 60.3554L745.791 58.5496C744.137 57.7621 742.477 56.9825 740.81 56.211L739.97 58.026ZM749.855 62.7323C751.5 63.5378 753.138 64.3513 754.769 65.1728L755.669 63.3865C754.031 62.5616 752.386 61.7448 750.734 60.9361L749.855 62.7323ZM759.687 67.6841C761.319 68.5294 762.944 69.3829 764.561 70.2445L765.502 68.4793C763.877 67.6141 762.245 66.757 760.607 65.9082L759.687 67.6841ZM769.392 72.854C770.995 73.732 772.591 74.6182 774.179 75.5125L775.16 73.7699C773.565 72.8717 771.963 71.9817 770.353 71.0999L769.392 72.854ZM778.92 78.2201C780.512 79.1421 782.096 80.0724 783.673 81.0112L784.696 79.2928C783.113 78.3499 781.521 77.4154 779.922 76.4893L778.92 78.2201ZM788.393 83.8622C789.958 84.821 791.515 85.7883 793.064 86.7639L794.13 85.0718C792.574 84.0916 791.01 83.1199 789.438 82.1568L788.393 83.8622ZM797.684 89.7162C799.216 90.7088 800.739 91.7098 802.253 92.7192L803.363 91.055C801.841 90.0407 800.311 89.035 798.772 88.0378L797.684 89.7162ZM806.787 95.784C808.307 96.826 809.817 97.8767 811.319 98.9361L812.472 97.302C810.963 96.2374 809.445 95.1816 807.918 94.1345L806.787 95.784ZM815.795 102.14C817.278 103.217 818.751 104.303 820.215 105.397L821.412 103.795C819.941 102.695 818.46 101.604 816.97 100.522L815.795 102.14ZM824.577 108.706C826.021 109.817 827.456 110.938 828.881 112.067L830.123 110.499C828.691 109.364 827.249 108.238 825.797 107.121L824.577 108.706ZM833.171 115.517C834.595 116.679 836.009 117.85 837.412 119.03L838.699 117.5C837.289 116.313 835.867 115.136 834.436 113.967L833.171 115.517ZM841.59 122.598C842.973 123.796 844.344 125.003 845.705 126.219L847.038 124.728C845.669 123.505 844.29 122.291 842.9 121.087L841.59 122.598ZM849.755 129.894C851.1 131.133 852.434 132.382 853.757 133.639L855.135 132.19C853.804 130.925 852.463 129.67 851.11 128.423L849.755 129.894ZM857.718 137.464C859.026 138.748 860.324 140.042 861.609 141.344L863.033 139.939C861.74 138.629 860.435 137.328 859.118 136.037L857.718 137.464ZM865.431 145.279C866.693 146.6 867.944 147.93 869.182 149.269L870.65 147.911C869.404 146.564 868.147 145.226 866.877 143.897L865.431 145.279ZM872.862 153.315C874.085 154.683 875.296 156.059 876.494 157.445L878.007 156.137C876.802 154.743 875.583 153.358 874.353 151.982L872.862 153.315ZM880.051 161.631C881.224 163.035 882.384 164.449 883.532 165.872L885.089 164.617C883.934 163.185 882.766 161.762 881.586 160.349L880.051 161.631ZM886.935 170.169C888.057 171.611 889.165 173.062 890.261 174.522L891.861 173.322C890.758 171.853 889.643 170.392 888.514 168.941L886.935 170.169ZM893.513 178.939C894.584 180.421 895.642 181.913 896.686 183.414L898.328 182.272C897.277 180.761 896.212 179.259 895.134 177.768L893.513 178.939ZM899.778 187.945C900.795 189.464 901.798 190.993 902.787 192.532L904.469 191.45C903.474 189.901 902.464 188.362 901.44 186.832L899.778 187.945Z" fill="#54BD82"/>
<path d="M779.519 78.8711C780.873 76.3548 779.888 73.2173 777.336 71.9155L763.367 64.7898L764.105 36.963L757.173 33.2456L750.536 58.2447L736.158 50.9104L735.213 43.7269L728.948 40.3668L728.459 51.4903L719.438 58.0383L725.704 61.3983L732.225 58.2182L746.289 66.1361L729.074 85.4628L736.007 89.1803L758.84 73.202L772.504 80.8947C775.001 82.3002 778.164 81.3873 779.519 78.8711Z" fill="#009183"/>
</svg>
