<svg width="12" height="8" viewBox="0 0 12 8" fill="none" xmlns="http://www.w3.org/2000/svg">
<path fill-rule="evenodd" clip-rule="evenodd" d="M10.6881 0.238867C11.2045 0.370285 11.6111 0.757478 11.7491 1.24922C11.9999 2.14049 12 3.99994 12 3.99994C12 3.99994 12 5.85951 11.7492 6.75078C11.6111 7.24241 11.2045 7.62972 10.6882 7.76113C9.75243 8 6 8 6 8C6 8 2.24757 8 1.31175 7.76113C0.795454 7.62972 0.388784 7.24252 0.250796 6.75078C0 5.85951 0 4.00006 0 4.00006C0 4.00006 0 2.14049 0.250796 1.24922C0.388784 0.757478 0.795352 0.370285 1.31165 0.238867C2.24747 0 5.9999 0 5.9999 0C5.9999 0 9.75243 0 10.6881 0.238867ZM7.91745 4.00006L4.79996 5.71429V2.28574L7.91745 4.00006Z" fill="#009183"/>
</svg>
