<svg width="170" height="61" viewBox="0 0 170 61" fill="none" xmlns="http://www.w3.org/2000/svg">
<rect width="170" height="61" fill="black" fill-opacity="0"/>
<rect width="60.2083" height="61" fill="black" fill-opacity="0"/>
<path d="M60.2083 0H0V61H60.2083V0Z" fill="#005B94"/>
<rect width="164.688" height="43.6569" fill="black" fill-opacity="0" transform="translate(5.3125 11.3628)"/>
<path d="M40.7296 46.2884C40.4935 46.6472 40.1393 47.006 39.9032 47.3648C39.7852 47.6041 39.549 47.7237 39.3129 47.8433C39.1949 47.9629 38.9588 48.0825 38.8407 48.2021C35.8893 50.2354 31.9935 49.8766 29.3963 47.2452L11.2157 29.0648C9.79905 27.6296 8.97266 25.5962 8.97266 23.6825C8.97266 21.7688 9.68099 19.855 11.2157 18.3001C14.1671 15.3099 18.8893 15.3099 21.8407 18.3001L34.4727 31.0982L30.1046 35.5237C29.6324 36.0021 29.6324 36.2413 29.8685 36.4805C29.9865 36.6001 30.1046 36.7197 30.2227 36.8394C30.5768 37.1982 31.049 37.557 31.5213 37.9158C31.6393 37.9158 31.6393 38.0354 31.7574 38.0354C32.2296 38.2746 32.7018 38.6335 33.174 38.7531C33.4102 38.8727 33.7643 38.8727 34.0004 38.9923C34.1185 38.9923 34.1185 38.9923 34.2365 38.9923C35.5352 39.2315 36.9518 38.8727 38.3685 37.557C38.6046 37.3178 39.1949 36.6001 39.549 36.2413L39.7852 36.4805C42.5004 39.2315 42.7365 43.2982 40.7296 46.2884Z" fill="#E4C9B0"/>
<path d="M52.5346 33.9688L42.4999 44.4943C42.3818 44.6139 41.5555 45.4512 40.8471 46.2884C42.8541 43.2982 42.618 39.2315 40.0207 36.6002L39.9027 36.4806C39.9027 36.4806 38.7221 37.4374 38.6041 37.6766C37.1874 38.9923 35.7707 39.3512 34.4721 39.1119C34.3541 39.1119 34.3541 39.1119 34.236 39.1119C33.9999 39.1119 33.6457 38.9923 33.4096 38.8727C32.8193 38.6335 32.3471 38.3943 31.993 38.1551C31.8749 38.1551 31.8749 38.0355 31.7568 38.0355C31.1666 37.6766 30.8124 37.1982 30.4582 36.959C30.3402 36.8394 30.2221 36.7198 30.1041 36.6002C29.986 36.361 29.868 36.1217 30.3402 35.6433L34.7082 31.2178L42.2638 23.3237C45.2152 20.3335 49.9374 20.3335 52.8888 23.3237C55.486 26.1943 55.486 30.9786 52.5346 33.9688Z" fill="#FEE6D3"/>
<path d="M18.1806 14.712C15.2292 11.7218 10.5069 11.7218 7.55556 14.712C6.13889 16.1473 5.3125 18.1806 5.3125 20.0944C5.3125 22.0081 6.02083 23.9218 7.55556 25.4767L20.0694 38.1551L30.9306 27.51L18.1806 14.712Z" fill="#3593C1"/>
<path d="M52.5348 23.204C49.5834 20.2138 44.8612 20.2138 41.9098 23.204L37.7779 27.6294L48.4029 38.3941L52.5348 34.0883C55.4862 30.9785 55.4862 26.1941 52.5348 23.204Z" fill="#3593C1"/>
<path d="M88.3053 44.6138H85.4719L74.8469 13.755H77.09L87.0066 43.1785L97.0414 13.755H99.0483L88.3053 44.6138Z" fill="#231F20"/>
<path d="M104.479 16.1471C103.653 16.1471 103.063 15.549 103.063 14.7118C103.063 13.8745 103.653 13.2765 104.479 13.2765C105.306 13.2765 105.896 13.8745 105.896 14.7118C105.896 15.4294 105.306 16.1471 104.479 16.1471ZM103.535 22.4863H105.424V44.6137H103.535V22.4863Z" fill="#231F20"/>
<path d="M126.673 52.7472C124.784 54.6609 122.541 55.0197 119.826 55.0197C115.222 55.0197 112.388 52.7472 112.152 52.508L113.097 51.0727C113.451 51.3119 116.048 53.3452 119.826 53.3452C122.777 53.3452 124.312 52.508 125.375 51.4315C126.673 50.1158 126.791 48.4413 126.791 44.4942V42.4609C126.437 42.7001 123.84 44.7334 120.062 44.7334C114.75 44.7334 110.854 40.4276 110.854 33.8491C110.854 27.0315 115.34 22.1276 121.479 22.1276C125.493 22.1276 128.208 23.6825 128.68 23.9217V45.2119C128.562 49.2785 128.09 51.1923 126.673 52.7472ZM126.673 24.8785C126.319 24.7589 124.43 23.6825 121.243 23.6825C116.048 23.6825 112.743 27.7491 112.743 33.7295C112.743 39.1119 115.576 42.8197 120.062 42.8197C123.604 42.8197 126.319 40.6668 126.673 40.4276V24.8785Z" fill="#231F20"/>
<path d="M136.118 16.1471C135.292 16.1471 134.702 15.549 134.702 14.7118C134.702 13.8745 135.292 13.2765 136.118 13.2765C136.945 13.2765 137.535 13.8745 137.535 14.7118C137.535 15.4294 136.945 16.1471 136.118 16.1471ZM135.174 22.4863H137.063V44.6137H135.174V22.4863Z" fill="#231F20"/>
<path d="M145.563 11.3628H143.674V44.6138H145.563V11.3628Z" fill="#231F20"/>
<path d="M160.438 45.0923C154.653 45.0923 150.875 40.6668 150.875 33.4903C150.875 26.4334 154.535 22.0079 160.556 22.0079C166.34 22.0079 170 26.3138 170 33.8491C170 40.7864 166.34 45.0923 160.438 45.0923ZM160.438 23.6824C155.715 23.6824 152.764 27.6295 152.764 33.4903C152.764 39.4707 156.07 43.4177 160.438 43.4177C165.278 43.4177 168.111 39.5903 168.111 33.7295C168.111 27.7491 164.806 23.6824 160.438 23.6824Z" fill="#231F20"/>
</svg>
