<svg width="60" height="60" viewBox="0 0 60 60" fill="none" xmlns="http://www.w3.org/2000/svg">
<path fill-rule="evenodd" clip-rule="evenodd" d="M18.8315 7.4248C14.1615 7.4248 10.3623 11.2507 10.3623 15.9532C10.3623 20.6558 14.1616 24.4817 18.8315 24.4817C23.5015 24.4817 27.3007 20.6558 27.3007 15.9532C27.3007 11.2506 23.5016 7.4248 18.8315 7.4248ZM18.8315 20.9446C16.0984 20.9446 13.8749 18.7054 13.8749 15.9532C13.8749 13.2009 16.0984 10.9619 18.8315 10.9619C21.5647 10.9619 23.7882 13.201 23.7882 15.9532C23.7882 18.7054 21.5647 20.9446 18.8315 20.9446Z" fill="#9DAFBD"/>
<path fill-rule="evenodd" clip-rule="evenodd" d="M7.61377 0H51.9696C56.1678 0 59.5834 3.43945 59.5834 7.66711V52.3329C59.5834 56.5605 56.1678 60 51.9696 60H7.61377C3.41541 60 0 56.5605 0 52.333V7.66711C0 3.43945 3.41541 0 7.61377 0ZM51.9695 56.4658C54.2325 56.4658 56.0736 54.6119 56.0736 52.333L56.0737 38.4028L44.9978 24.6696C44.7205 24.3257 44.3627 24.2579 44.1741 24.2482C43.985 24.2384 43.6227 24.2689 43.312 24.5824L26.1202 41.9208C25.4791 42.567 24.4551 42.6149 23.7573 42.0316L16.522 35.9814C16.0964 35.6257 15.4816 35.629 15.0601 35.9902L3.5094 45.8868V52.333C3.5094 54.6118 5.35059 56.4658 7.61365 56.4658H51.9695ZM56.0736 32.7968L47.7219 22.4413C46.8938 21.4143 45.6661 20.7864 44.3539 20.7185C43.0426 20.6517 41.7568 21.1489 40.8285 22.0852L24.7679 38.283L18.7643 33.2628C17.0234 31.8071 14.5093 31.8221 12.7858 33.2988L3.5094 41.2467V7.66711C3.5094 5.38818 5.35059 3.53418 7.61365 3.53418H51.9695C54.2327 3.53418 56.0736 5.38818 56.0736 7.66711V32.7968Z" fill="#9DAFBD"/>
</svg>
