<svg width="170" height="36" viewBox="0 0 170 36" fill="none" xmlns="http://www.w3.org/2000/svg">
<rect width="170" height="36" fill="black" fill-opacity="0"/>
<path d="M101.783 35.9956H74.2869C70.9267 35.9956 68.2168 33.3062 68.2168 29.9713C68.2168 26.6365 70.9267 23.9471 74.2869 23.9471H101.783C105.143 23.9471 107.853 26.6365 107.853 29.9713C107.853 33.2703 105.107 35.9956 101.783 35.9956Z" fill="#54BD82"/>
<path d="M96.5441 32.9476L82.9947 9.13746C81.3326 6.26876 82.3082 2.57532 85.1987 0.925815L85.271 0.889956C88.1615 -0.759544 91.8109 0.2445 93.4729 3.14905L107.022 26.9592C108.684 29.8279 107.709 33.5214 104.818 35.1709L104.782 35.2067C101.892 36.8562 98.2062 35.8522 96.5441 32.9476Z" fill="#009183"/>
<path d="M79.6344 32.9118L93.509 9.10159C95.2072 6.19704 94.1955 2.50359 91.2688 0.818232C88.3422 -0.867127 84.6206 0.136917 82.9224 3.04147L69.0117 26.8516C67.3135 29.7562 68.3252 33.4496 71.2518 35.135C74.1785 36.8204 77.9362 35.8163 79.6344 32.9118Z" fill="#00A651"/>
<path d="M88.8842 35.9956H74.2508C70.8905 35.9956 68.1807 33.3062 68.1807 29.9713C68.1807 26.6365 70.8905 23.9471 74.2508 23.9471H88.8842C92.2444 23.9471 92.2444 35.9956 88.8842 35.9956Z" fill="#54BD82"/>
<path d="M162.196 8.5637H160.786V7.77481H164.436V8.5637H163.027V12.2571H162.159V8.5637H162.196ZM165.411 7.81067H166.351L167.724 9.92633L169.097 7.81067H170V12.293H169.169V9.10158L167.76 11.2531H167.651L166.242 9.10158V12.293H165.411V7.81067Z" fill="black"/>
<path d="M16.2593 27.0309C16.2593 28.2501 16.0425 29.3617 15.5728 30.2941C15.1031 31.2623 14.4888 32.0511 13.6578 32.7325C12.8629 33.4138 11.8874 33.9158 10.8034 34.2385C9.71945 34.5613 8.5271 34.7406 7.26249 34.7406C6.39532 34.7406 5.56429 34.6688 4.80553 34.5254C4.04676 34.382 3.36026 34.2027 2.78215 33.9875C2.20404 33.7724 1.69819 33.5572 1.30074 33.3062C0.903294 33.0911 0.61424 32.8759 0.469713 32.7325C0.325186 32.5532 0.180659 32.3739 0.108395 32.1229C0.0361318 31.8719 0 31.5491 0 31.1188C0 30.832 0 30.5809 0.0361318 30.3658C0.0722635 30.1865 0.108395 30.0072 0.144527 29.8996C0.216791 29.7921 0.252922 29.6845 0.361318 29.6486C0.433581 29.6128 0.541977 29.5769 0.650372 29.5769C0.831031 29.5769 1.12009 29.6845 1.44527 29.9355C1.80659 30.1506 2.24017 30.4016 2.78215 30.6885C3.32412 30.9754 3.9745 31.2264 4.73326 31.4415C5.49203 31.6926 6.39532 31.8001 7.40701 31.8001C8.16578 31.8001 8.85228 31.6926 9.50266 31.5133C10.153 31.2981 10.695 31.0112 11.1286 30.6527C11.5983 30.2941 11.9235 29.8279 12.1764 29.29C12.4293 28.7521 12.5377 28.1425 12.5377 27.4612C12.5377 26.7082 12.3571 26.0986 12.0319 25.5607C11.7067 25.0228 11.237 24.5567 10.695 24.1622C10.153 23.7678 9.50266 23.4092 8.78002 23.0865C8.05739 22.7637 7.33475 22.4052 6.57598 22.0824C5.81722 21.7238 5.09458 21.3653 4.40808 20.935C3.68544 20.5046 3.0712 20.0385 2.49309 19.4647C1.95112 18.891 1.4814 18.2456 1.12009 17.4567C0.758767 16.7036 0.61424 15.7713 0.61424 14.6955C0.61424 13.6198 0.831031 12.6157 1.22848 11.7551C1.62593 10.8945 2.20404 10.1773 2.89054 9.6036C3.61318 9.02986 4.44421 8.5637 5.4559 8.27683C6.43146 7.98996 7.51541 7.81067 8.63549 7.81067C9.2136 7.81067 9.79171 7.84653 10.406 7.9541C10.9841 8.06168 11.5622 8.20511 12.068 8.34855C12.5739 8.52784 13.0436 8.70714 13.4772 8.92229C13.8746 9.13744 14.1637 9.31673 14.2721 9.42431C14.4166 9.56775 14.4888 9.63946 14.525 9.71118C14.5611 9.7829 14.5972 9.89047 14.6334 9.99805C14.6695 10.1056 14.6695 10.2491 14.7056 10.4284C14.7056 10.6076 14.7418 10.7869 14.7418 11.0738C14.7418 11.3248 14.7418 11.54 14.7056 11.7193C14.6695 11.8986 14.6695 12.0779 14.5972 12.1854C14.5611 12.3289 14.4888 12.4006 14.4166 12.4723C14.3443 12.544 14.2721 12.5799 14.1637 12.5799C14.0191 12.5799 13.7662 12.4723 13.4772 12.293C13.152 12.1137 12.7545 11.8986 12.3209 11.6475C11.8512 11.3965 11.3092 11.1814 10.695 11.0021C10.0446 10.8228 9.35813 10.7152 8.56323 10.7152C7.8406 10.7152 7.19022 10.8228 6.64825 11.0021C6.10627 11.1814 5.67269 11.4683 5.31137 11.791C4.95005 12.1137 4.69713 12.5082 4.51647 12.9385C4.33581 13.3688 4.26355 13.8708 4.26355 14.3728C4.26355 15.09 4.44421 15.7354 4.76939 16.2733C5.09458 16.8112 5.56429 17.2774 6.1424 17.6718C6.72051 18.0663 7.33475 18.4607 8.05739 18.7834C8.78002 19.1062 9.50266 19.4647 10.2614 19.8233C11.0202 20.1819 11.7428 20.5405 12.4655 20.9708C13.1881 21.3653 13.8385 21.8673 14.3804 22.441C14.9586 23.0148 15.3921 23.6602 15.7535 24.4132C16.0786 25.0946 16.2593 25.991 16.2593 27.0309Z" fill="black"/>
<path d="M37.9384 24.5567C37.9384 26.0269 37.7577 27.4254 37.3603 28.6446C36.9628 29.8996 36.3847 30.9754 35.5898 31.8719C34.7949 32.7683 33.8194 33.4855 32.6631 33.9875C31.4708 34.4896 30.1339 34.7406 28.5802 34.7406C27.0627 34.7406 25.762 34.5254 24.6419 34.0593C23.5218 33.629 22.5824 32.9835 21.8236 32.1229C21.0648 31.2623 20.5229 30.2224 20.1615 29.039C19.8002 27.8198 19.6196 26.4572 19.6196 24.9153C19.6196 23.4451 19.8002 22.0466 20.1977 20.8274C20.5951 19.5723 21.1732 18.4966 21.9681 17.6001C22.763 16.7036 23.7386 15.9865 24.8948 15.4844C26.051 14.9824 27.424 14.7314 29.0138 14.7314C30.5314 14.7314 31.8321 14.9466 32.9522 15.4127C34.0723 15.843 35.0117 16.4885 35.7705 17.3491C36.5292 18.2097 37.0712 19.2496 37.4687 20.4329C37.7577 21.6521 37.9384 23.0506 37.9384 24.5567ZM34.4697 24.7719C34.4697 23.8037 34.3613 22.8713 34.1807 21.9749C34 21.1143 33.6748 20.3254 33.2774 19.6799C32.8438 19.0345 32.2657 18.4966 31.5431 18.1021C30.8204 17.7077 29.9171 17.5284 28.8332 17.5284C27.8215 17.5284 26.9543 17.7077 26.2317 18.0663C25.509 18.4249 24.9309 18.9269 24.4612 19.5723C23.9915 20.2178 23.6302 20.9708 23.4134 21.8673C23.1966 22.7279 23.0882 23.6961 23.0882 24.736C23.0882 25.74 23.1966 26.6724 23.3773 27.5688C23.5579 28.4294 23.8831 29.2183 24.3167 29.8638C24.7503 30.5092 25.3284 31.0471 26.051 31.4057C26.7737 31.8002 27.677 31.9794 28.7609 31.9794C29.7365 31.9794 30.6036 31.8002 31.3263 31.4416C32.0489 31.083 32.6631 30.581 33.1329 29.9714C33.6026 29.3259 33.9278 28.5729 34.1445 27.7123C34.3613 26.8158 34.4697 25.8476 34.4697 24.7719Z" fill="black"/>
<path d="M52.9692 8.16928C52.9692 8.42029 52.9692 8.63545 52.9331 8.77888C52.8969 8.92232 52.8608 9.06575 52.8247 9.13747C52.7885 9.24504 52.7524 9.2809 52.6801 9.31676C52.644 9.35262 52.5717 9.35262 52.4633 9.35262C52.3549 9.35262 52.2465 9.31676 52.102 9.24504C51.9575 9.17333 51.7768 9.10161 51.5962 9.02989C51.3794 8.95818 51.1626 8.88646 50.8735 8.81474C50.5845 8.74302 50.2593 8.70716 49.898 8.70716C49.3921 8.70716 48.9586 8.77888 48.5972 8.95817C48.2359 9.13747 47.9469 9.38848 47.7301 9.71121C47.5133 10.0698 47.3688 10.5001 47.2604 11.038C47.152 11.5759 47.1158 12.2572 47.1158 13.0461V15.0183H51.2349C51.3433 15.0183 51.4517 15.0542 51.5239 15.09C51.5962 15.1259 51.6684 15.2334 51.7407 15.341C51.813 15.4486 51.8491 15.592 51.8852 15.7713C51.9214 15.9506 51.9214 16.1658 51.9214 16.4168C51.9214 16.9188 51.8491 17.2415 51.7407 17.4567C51.6323 17.6718 51.4517 17.7794 51.2349 17.7794H47.1158V33.7724C47.1158 33.88 47.0797 33.9875 47.0436 34.0593C46.9713 34.131 46.899 34.2027 46.7545 34.2386C46.61 34.2744 46.4655 34.3461 46.2487 34.3461C46.0319 34.382 45.7428 34.382 45.4176 34.382C45.0925 34.382 44.8034 34.382 44.5866 34.3461C44.3698 34.3103 44.1892 34.2744 44.0808 34.2386C43.9362 34.1668 43.864 34.131 43.7917 34.0593C43.7195 33.9875 43.7195 33.88 43.7195 33.7724V17.887H41.1902C40.9734 17.887 40.7928 17.7794 40.6844 17.5643C40.576 17.3491 40.5037 16.9905 40.5037 16.5244C40.5037 16.2733 40.5037 16.0582 40.5399 15.8789C40.576 15.6996 40.6121 15.5562 40.6483 15.4486C40.7205 15.341 40.7566 15.2693 40.865 15.1976C40.9373 15.1617 41.0457 15.1259 41.1541 15.1259H43.7556V13.2254C43.7556 11.9703 43.864 10.8587 44.1169 9.96222C44.3698 9.06575 44.7311 8.31272 45.2009 7.73898C45.7067 7.16524 46.3209 6.73494 47.0436 6.44807C47.8023 6.1612 48.6695 6.01776 49.6812 6.01776C50.1509 6.01776 50.6206 6.05362 51.0542 6.1612C51.4878 6.23291 51.8491 6.34049 52.102 6.44807C52.3549 6.55564 52.4995 6.62736 52.6079 6.73494C52.6801 6.80665 52.7524 6.91423 52.8247 7.05766C52.8969 7.2011 52.9331 7.34453 52.9331 7.52383C52.9692 7.66726 52.9692 7.91827 52.9692 8.16928Z" fill="black"/>
<path d="M65.2179 32.5532C65.2179 32.9476 65.1817 33.2704 65.1456 33.4855C65.0733 33.7007 65.0011 33.88 64.8927 33.9875C64.7843 34.0951 64.6036 34.2027 64.3868 34.2744C64.17 34.382 63.9171 34.4537 63.6281 34.4896C63.339 34.5613 63.05 34.5971 62.7248 34.633C62.3996 34.6689 62.1105 34.7047 61.7853 34.7047C60.8459 34.7047 60.0149 34.5971 59.3284 34.3461C58.6419 34.0951 58.0999 33.7007 57.6663 33.1987C57.2327 32.6966 56.9075 32.0512 56.7269 31.2623C56.5462 30.4734 56.4378 29.5769 56.4378 28.5012V17.887H53.8725C53.6557 17.887 53.5112 17.7794 53.3666 17.5643C53.2582 17.3491 53.186 16.9905 53.186 16.5244C53.186 16.2733 53.186 16.0582 53.2221 15.8789C53.2582 15.6996 53.2944 15.5562 53.3666 15.4486C53.4028 15.341 53.475 15.2693 53.5834 15.1976C53.6557 15.1617 53.7641 15.1259 53.8725 15.1259H56.4378V10.787C56.4378 10.6794 56.474 10.6077 56.5101 10.536C56.5462 10.4642 56.6546 10.3925 56.763 10.3208C56.9076 10.2491 57.0521 10.2132 57.2689 10.1774C57.4857 10.1415 57.7747 10.1415 58.0999 10.1415C58.4251 10.1415 58.7141 10.1415 58.9309 10.1774C59.1477 10.2132 59.3284 10.2491 59.4368 10.3208C59.5452 10.3925 59.6536 10.4642 59.6897 10.536C59.7258 10.6077 59.762 10.7152 59.762 10.787V15.1259H64.4591C64.5675 15.1259 64.6759 15.1617 64.7481 15.1976C64.8204 15.2334 64.8927 15.341 64.9649 15.4486C65.0372 15.5562 65.0733 15.6996 65.1095 15.8789C65.1456 16.0582 65.1456 16.2733 65.1456 16.5244C65.1456 17.0264 65.0733 17.3491 64.9649 17.5643C64.8565 17.7794 64.6759 17.887 64.4591 17.887H59.762V28.0709C59.762 29.3259 59.9426 30.2582 60.3401 30.9037C60.7014 31.5492 61.3879 31.8719 62.3634 31.8719C62.6886 31.8719 62.9416 31.836 63.1945 31.7643C63.4474 31.6926 63.6642 31.6567 63.8448 31.585C64.0255 31.5133 64.2062 31.4416 64.3507 31.4057C64.4952 31.334 64.6036 31.2981 64.712 31.2981C64.7843 31.2981 64.8565 31.2981 64.8927 31.334C64.9649 31.3699 65.0011 31.4416 65.0372 31.5133C65.0733 31.6209 65.1095 31.7284 65.1456 31.9077C65.2179 32.087 65.2179 32.3022 65.2179 32.5532Z" fill="black"/>
<path d="M122.884 16.8471C122.884 17.1339 122.884 17.385 122.848 17.6001C122.848 17.8153 122.812 17.9587 122.776 18.0663C122.74 18.1738 122.667 18.2814 122.631 18.3173C122.559 18.389 122.487 18.4249 122.378 18.4249C122.27 18.4249 122.125 18.389 121.981 18.3173C121.836 18.2456 121.656 18.2097 121.439 18.138C121.258 18.0663 121.005 18.0304 120.789 17.9587C120.536 17.887 120.283 17.887 119.994 17.887C119.668 17.887 119.307 17.9587 118.982 18.1021C118.657 18.2456 118.295 18.4607 117.934 18.7834C117.573 19.1062 117.211 19.5006 116.814 20.0026C116.417 20.5047 115.983 21.1501 115.513 21.9032V33.88C115.513 33.9875 115.477 34.0951 115.441 34.1668C115.369 34.2385 115.296 34.3103 115.188 34.3461C115.08 34.382 114.899 34.4537 114.682 34.4537C114.465 34.4896 114.176 34.4896 113.851 34.4896C113.526 34.4896 113.237 34.4896 113.02 34.4537C112.803 34.4178 112.623 34.382 112.514 34.3461C112.37 34.3103 112.298 34.2385 112.261 34.1668C112.225 34.0951 112.189 33.9875 112.189 33.88V15.6637C112.189 15.5562 112.225 15.4486 112.261 15.3769C112.298 15.3052 112.37 15.2334 112.514 15.1617C112.623 15.09 112.803 15.0541 112.984 15.0541C113.165 15.0183 113.418 15.0183 113.743 15.0183C114.032 15.0183 114.285 15.0183 114.502 15.0541C114.682 15.09 114.863 15.1259 114.971 15.1617C115.08 15.2334 115.152 15.3052 115.188 15.3769C115.224 15.4486 115.26 15.5562 115.26 15.6637V18.3173C115.766 17.6001 116.236 16.9905 116.669 16.5243C117.103 16.0582 117.537 15.6996 117.934 15.4486C118.332 15.1976 118.729 15.0183 119.09 14.9107C119.488 14.8031 119.885 14.7673 120.247 14.7673C120.427 14.7673 120.608 14.7673 120.861 14.8031C121.078 14.839 121.33 14.8748 121.547 14.9107C121.8 14.9824 122.017 15.0183 122.198 15.09C122.378 15.1617 122.523 15.2334 122.631 15.3052C122.703 15.3769 122.776 15.4486 122.812 15.4844C122.848 15.5562 122.848 15.6279 122.884 15.6996C122.92 15.7713 122.92 15.9148 122.92 16.1299C122.884 16.2733 122.884 16.5243 122.884 16.8471Z" fill="black"/>
<path d="M141.853 23.983C141.853 24.5208 141.709 24.8794 141.456 25.0946C141.203 25.3097 140.878 25.4173 140.553 25.4173H128.448C128.448 26.4214 128.557 27.3537 128.774 28.1426C128.99 28.9673 129.316 29.6486 129.785 30.2224C130.255 30.7961 130.869 31.2623 131.664 31.5491C132.423 31.8719 133.362 32.0153 134.482 32.0153C135.35 32.0153 136.145 31.9436 136.831 31.8002C137.518 31.6567 138.096 31.5133 138.601 31.334C139.107 31.1547 139.505 31.0113 139.83 30.8678C140.155 30.7244 140.408 30.6527 140.553 30.6527C140.661 30.6527 140.733 30.6885 140.806 30.7244C140.878 30.7603 140.95 30.832 140.986 30.9395C141.022 31.0471 141.058 31.1547 141.095 31.334C141.131 31.5133 141.131 31.6926 141.131 31.9436C141.131 32.1229 141.131 32.2663 141.095 32.4098C141.095 32.5532 141.058 32.6608 141.058 32.7683C141.022 32.8759 141.022 32.9476 140.95 33.0552C140.914 33.1269 140.842 33.1986 140.769 33.2704C140.697 33.3421 140.48 33.4497 140.119 33.629C139.758 33.8082 139.288 33.9517 138.674 34.131C138.096 34.3103 137.409 34.4537 136.65 34.5613C135.892 34.7047 135.061 34.7406 134.193 34.7406C132.676 34.7406 131.375 34.5254 130.219 34.0951C129.099 33.6648 128.123 33.0552 127.364 32.2305C126.606 31.4057 125.991 30.3658 125.594 29.1466C125.197 27.8916 125.016 26.4572 125.016 24.8077C125.016 23.2299 125.233 21.8314 125.63 20.5764C126.028 19.3213 126.642 18.2814 127.401 17.385C128.159 16.5244 129.099 15.843 130.183 15.3769C131.267 14.9107 132.495 14.6956 133.832 14.6956C135.277 14.6956 136.506 14.9107 137.518 15.3769C138.529 15.843 139.36 16.4526 140.011 17.2415C140.661 18.0304 141.131 18.9269 141.456 19.9668C141.745 21.0067 141.926 22.1183 141.926 23.3016V23.983H141.853ZM138.457 22.9789C138.493 21.2218 138.096 19.8592 137.265 18.8552C136.434 17.8511 135.205 17.3491 133.579 17.3491C132.748 17.3491 132.025 17.4925 131.375 17.8153C130.761 18.138 130.219 18.5324 129.785 19.0345C129.352 19.5365 129.027 20.1461 128.81 20.8274C128.593 21.5087 128.448 22.2259 128.412 22.9789H138.457Z" fill="black"/>
<path d="M160.786 33.9158C160.786 34.0951 160.714 34.2027 160.606 34.2744C160.497 34.3461 160.353 34.4178 160.172 34.4537C159.991 34.4896 159.702 34.5254 159.341 34.5254C158.98 34.5254 158.691 34.4896 158.51 34.4537C158.293 34.4178 158.149 34.3461 158.04 34.2744C157.932 34.2027 157.896 34.0593 157.896 33.9158V32.087C157.101 32.9476 156.198 33.5931 155.222 34.0593C154.247 34.5254 153.199 34.7764 152.079 34.7764C151.103 34.7764 150.236 34.6689 149.441 34.4178C148.646 34.1668 147.996 33.8082 147.454 33.3421C146.912 32.8759 146.478 32.3022 146.153 31.585C145.864 30.9037 145.683 30.1148 145.683 29.2183C145.683 28.1784 145.9 27.3178 146.334 26.5289C146.767 25.7759 147.345 25.1304 148.14 24.6284C148.935 24.1264 149.911 23.7678 151.031 23.5168C152.187 23.2658 153.452 23.1582 154.897 23.1582H157.426V21.7239C157.426 21.0067 157.354 20.3971 157.209 19.8592C157.065 19.3213 156.812 18.8552 156.487 18.4966C156.162 18.138 155.728 17.8511 155.186 17.6718C154.644 17.4925 153.994 17.385 153.235 17.385C152.404 17.385 151.645 17.4925 150.995 17.6718C150.344 17.8511 149.766 18.0663 149.26 18.3173C148.754 18.5683 148.357 18.7835 148.032 18.9627C147.707 19.142 147.454 19.2496 147.273 19.2496C147.165 19.2496 147.056 19.2138 146.984 19.1779C146.912 19.1062 146.84 19.0345 146.767 18.9269C146.695 18.8193 146.659 18.6759 146.623 18.4966C146.587 18.3173 146.587 18.138 146.587 17.9228C146.587 17.6001 146.623 17.3132 146.659 17.1339C146.695 16.9547 146.839 16.7395 147.02 16.5602C147.201 16.3809 147.526 16.1658 147.96 15.9506C148.393 15.6996 148.935 15.4844 149.513 15.3052C150.091 15.1259 150.742 14.9466 151.428 14.8031C152.115 14.6597 152.837 14.6238 153.524 14.6238C154.861 14.6238 155.981 14.7673 156.884 15.0541C157.824 15.341 158.546 15.7713 159.124 16.3451C159.702 16.9188 160.1 17.636 160.353 18.4966C160.606 19.3572 160.75 20.3254 160.75 21.4729V33.9158H160.786ZM157.462 25.5607H154.572C153.632 25.5607 152.837 25.6325 152.151 25.7759C151.464 25.9193 150.922 26.1703 150.453 26.4572C150.019 26.7441 149.658 27.1385 149.477 27.5688C149.26 27.9991 149.152 28.4653 149.152 29.039C149.152 29.9714 149.441 30.7244 150.055 31.2981C150.669 31.8719 151.5 32.1229 152.584 32.1229C153.452 32.1229 154.283 31.9077 155.041 31.4416C155.8 31.0113 156.595 30.33 157.426 29.3976V25.5607H157.462Z" fill="black"/>
</svg>
