<svg width="600" height="350" viewBox="0 0 600 350" fill="none" xmlns="http://www.w3.org/2000/svg">
<path d="M-17.3062 346.063L20.285 335.991L-9.99927 222.968L58.2905 283.649L59.2863 283.382L88.3841 195.806L118.869 309.575L156.958 299.369L110.264 125.106L68.9384 136.179L42.8767 222.141L-22.6746 160.726L-64 171.799L-17.3062 346.063Z" fill="#D7EEE8"/>
<path d="M258.872 275.263C283.02 268.793 298.409 254.53 306.721 235.76L279.926 222.394C272.072 234.905 263.928 241.356 251.232 244.758C234.303 249.294 219.952 243.534 211.615 227.357L304.473 202.476C303.788 198.924 303.103 195.372 302.303 192.385C292.164 154.545 262.478 125.411 217.916 137.351C179.08 147.757 160.35 186.395 170.556 224.484C181.629 265.81 218.791 286.003 258.872 275.263ZM204.78 203.84C203.165 185.863 210.37 171.925 226.054 167.723C241.987 163.453 255.013 172.237 261.79 188.565L204.78 203.84Z" fill="#D7EEE8"/>
<path d="M347.514 248.31L385.354 238.171L365.409 163.735C360.606 145.811 367.349 134.132 381.788 130.263C396.227 126.394 407.16 133.337 411.962 151.261L431.907 225.697L469.747 215.558L446.601 129.173C438.396 98.5519 416.647 84.1011 388.018 91.7723C368.849 96.9086 360.381 110.117 354.669 123.655L349.6 104.735L311.76 114.874L347.514 248.31Z" fill="#D7EEE8"/>
<path d="M547.6 197.365C566.769 192.229 575.237 179.02 580.948 165.483L586.018 184.403L623.858 174.264L588.104 40.8275L550.264 50.9668L570.209 125.402C575.011 143.327 568.269 155.006 553.83 158.875C539.391 162.744 528.458 155.8 523.655 137.876L503.71 63.4407L465.87 73.5799L489.017 159.965C497.222 190.586 518.971 205.036 547.6 197.365Z" fill="#D7EEE8"/>
</svg>
