<svg width="64" height="64" viewBox="0 0 64 64" fill="none" xmlns="http://www.w3.org/2000/svg">
<path d="M49.5483 12.3871H51.6128V14.4516H49.5483V12.3871Z" fill="#009183"/>
<path d="M51.6128 8.25806H49.5483V10.3226H51.6128V8.25806Z" fill="#009183"/>
<path fill-rule="evenodd" clip-rule="evenodd" d="M62.9683 16.5161C61.3228 16.5161 60.0923 13.1881 58.9028 9.96954C57.1748 5.29651 55.2158 0 50.5811 0C45.9463 0 43.9868 5.29651 42.2588 9.96954C41.0698 13.1881 39.8394 16.5161 38.1938 16.5161H37.1616V18.5806H64.0005V16.5161H62.9683ZM41.5425 16.5161C42.5884 15.0224 43.3809 12.8898 44.1953 10.6859L44.1982 10.6792C45.7651 6.44281 47.3843 2.06451 50.5811 2.06451C53.7773 2.06451 55.3965 6.44281 56.9634 10.6792L56.9663 10.6859C57.7808 12.8898 58.5737 15.0224 59.6196 16.5161H41.5425Z" fill="#009183"/>
<path d="M39.9272 8.52127L40.5879 6.56514C36.4795 5.1778 31.9976 4.81236 27.7065 5.50294L28.0347 7.54166C31.9956 6.90475 36.1357 7.24127 39.9272 8.52127Z" fill="#009183"/>
<path fill-rule="evenodd" clip-rule="evenodd" d="M21.6772 32C21.6772 37.6919 26.3081 42.3226 32 42.3226C37.6919 42.3226 42.3223 37.6919 42.3223 32C42.3223 26.3081 37.6919 21.6774 32 21.6774C26.3081 21.6774 21.6772 26.3081 21.6772 32ZM32 23.7419C36.5532 23.7419 40.2578 27.4467 40.2578 32C40.2578 32.96 40.0845 33.8787 39.7822 34.7365L32.769 31.231L29.2632 24.2178C30.1211 23.9153 31.04 23.7419 32 23.7419ZM27.4146 25.1375L31.231 32.7701L38.8633 36.5863C37.3799 38.7985 34.8569 40.2581 32 40.2581C27.4468 40.2581 23.7417 36.5533 23.7417 32C23.7417 29.1427 25.2012 26.6199 27.4146 25.1375Z" fill="#009183"/>
<path d="M5.16162 32C5.16162 25.2067 7.70508 18.7251 12.3223 13.7486L13.8354 15.1535C9.57373 19.746 7.22607 25.729 7.22607 32C7.22607 36.9744 8.69385 41.7713 11.4717 45.8735L9.76221 47.0307C6.75244 42.5858 5.16162 37.3894 5.16162 32Z" fill="#009183"/>
<path d="M36.9556 56.2787C33.3872 57.0054 29.5918 56.927 26.0532 56.0568L25.5586 58.0604C27.6543 58.5765 29.8208 58.8387 32 58.8387C33.8071 58.8387 35.6138 58.6581 37.3667 58.3019L36.9556 56.2787Z" fill="#009183"/>
<path d="M58.8389 32C58.8389 36.1435 57.9189 40.1156 56.1074 43.809L54.2544 42.9006C55.9268 39.4921 56.7739 35.8245 56.7739 32C56.7739 28.1755 55.9268 24.5079 54.2544 21.1004L56.1074 20.191C57.9189 23.8844 58.8389 27.8575 58.8389 32Z" fill="#009183"/>
<path d="M59.8711 47.4839H61.936V61.9355H64.0005V64H37.1616V61.9355H39.2261V53.6774H41.2905V61.9355H43.355V47.4839H45.4199V61.9355H47.4844V49.5484H49.5488V61.9355H51.6133V51.6129H53.6777V61.9355H55.7422V45.4193H57.8066V61.9355H59.8711V47.4839Z" fill="#009183"/>
<path fill-rule="evenodd" clip-rule="evenodd" d="M19.9629 46.4268L15.3984 52.1321L12.1045 48.8382L8.89062 55.2681L5.79395 53.2036L1.42676 61.9355H0V64H26.8389V61.9355H25.501L19.9629 46.4268ZM3.73486 61.9355L6.59424 56.2168L9.69092 58.2813L12.6709 52.3241L15.5708 55.2238L19.2642 50.6065L23.3096 61.9355H3.73486Z" fill="#009183"/>
<path fill-rule="evenodd" clip-rule="evenodd" d="M6.19336 15.4839C6.19336 17.1912 4.8042 18.5806 3.09668 18.5806C1.38965 18.5806 0 17.1912 0 15.4839C0 13.7765 1.38965 12.3871 3.09668 12.3871C3.32715 12.3871 3.55078 12.417 3.7666 12.4645L5.84375 9.14168C5.42334 8.61316 5.16113 7.95251 5.16113 7.2258C5.16113 5.51845 6.55078 4.12903 8.2583 4.12903C9.96533 4.12903 11.355 5.51845 11.355 7.2258C11.355 7.24542 11.3496 7.26297 11.3496 7.28258L14.1606 8.33652C14.728 7.66348 15.5684 7.2258 16.5161 7.2258C16.9932 7.2258 17.439 7.34245 17.8438 7.53548L20.9561 4.42322C20.7617 4.01961 20.645 3.57368 20.645 3.09677C20.645 1.38942 22.0347 0 23.7417 0C25.4492 0 26.8389 1.38942 26.8389 3.09677C26.8389 4.80412 25.4492 6.19354 23.7417 6.19354C23.2651 6.19354 22.8193 6.0769 22.4146 5.88387L19.3022 8.99612C19.4961 9.39975 19.6128 9.84567 19.6128 10.3226C19.6128 12.0299 18.2236 13.4194 16.5161 13.4194C14.8086 13.4194 13.4194 12.0299 13.4194 10.3226C13.4194 10.3128 13.4209 10.3035 13.4224 10.2942L13.4243 10.2658L10.6138 9.21187C10.0459 9.8849 9.20557 10.3226 8.2583 10.3226C8.15479 10.3226 8.05273 10.3165 7.95166 10.3056C7.82812 10.2922 7.70703 10.2713 7.58789 10.2452L5.51123 13.568C5.93115 14.0965 6.19336 14.7572 6.19336 15.4839ZM24.7744 3.09677C24.7744 2.528 24.3115 2.06451 23.7417 2.06451C23.1724 2.06451 22.7095 2.528 22.7095 3.09677C22.7095 3.66554 23.1724 4.12903 23.7417 4.12903C24.3115 4.12903 24.7744 3.66554 24.7744 3.09677ZM17.5483 10.3226C17.5483 9.7538 17.0859 9.29033 16.5161 9.29033C15.9463 9.29033 15.4839 9.7538 15.4839 10.3226C15.4839 10.8914 15.9463 11.3548 16.5161 11.3548C17.0859 11.3548 17.5483 10.8914 17.5483 10.3226ZM9.29053 7.2258C9.29053 6.65703 8.82764 6.19354 8.2583 6.19354C7.68848 6.19354 7.22559 6.65703 7.22559 7.2258C7.22559 7.79459 7.68848 8.25806 8.2583 8.25806C8.82764 8.25806 9.29053 7.79459 9.29053 7.2258ZM4.12891 15.4839C4.12891 14.9151 3.6665 14.4516 3.09668 14.4516C2.52686 14.4516 2.06445 14.9151 2.06445 15.4839C2.06445 16.0526 2.52686 16.5161 3.09668 16.5161C3.6665 16.5161 4.12891 16.0526 4.12891 15.4839Z" fill="#009183"/>
</svg>
