<svg width="64" height="64" viewBox="0 0 64 64" fill="none" xmlns="http://www.w3.org/2000/svg">
<path d="M21.3333 4.12903H23.4667V6.19355H21.3333V4.12903Z" fill="#009183"/>
<path d="M27.7333 4.12903H25.6V6.19355H27.7333V4.12903Z" fill="#009183"/>
<path d="M40.5333 18.5806V16.5161H42.6667V18.5806H40.5333Z" fill="#009183"/>
<path d="M38.4 16.5161H36.2667V18.5806H38.4V16.5161Z" fill="#009183"/>
<path d="M21.3333 30.9677V28.9032H23.4667V30.9677H21.3333Z" fill="#009183"/>
<path d="M27.7333 28.9032H25.6V30.9677H27.7333V28.9032Z" fill="#009183"/>
<path fill-rule="evenodd" clip-rule="evenodd" d="M43.7333 35.0968H20.2667C18.5024 35.0968 17.0667 33.7074 17.0667 32V27.871C17.0667 26.1636 18.5024 24.7742 20.2667 24.7742V22.7097C18.5024 22.7097 17.0667 21.3203 17.0667 19.6129V15.4839C17.0667 13.7765 18.5024 12.3871 20.2667 12.3871V10.3226C18.5024 10.3226 17.0667 8.93316 17.0667 7.22581V3.09677C17.0667 1.38942 18.5024 0 20.2667 0H43.7333C45.4976 0 46.9333 1.38942 46.9333 3.09677V7.22581C46.9333 8.93316 45.4976 10.3226 43.7333 10.3226V12.3871C45.4976 12.3871 46.9333 13.7765 46.9333 15.4839V19.6129C46.9333 21.3203 45.4976 22.7097 43.7333 22.7097V24.7742C45.4976 24.7742 46.9333 26.1636 46.9333 27.871V32C46.9333 33.7074 45.4976 35.0968 43.7333 35.0968ZM19.2 3.09677V7.22581C19.2 7.79458 19.6789 8.25806 20.2667 8.25806H43.7333C44.3211 8.25806 44.8 7.79458 44.8 7.22581V3.09677C44.8 2.528 44.3211 2.06452 43.7333 2.06452H20.2667C19.6789 2.06452 19.2 2.528 19.2 3.09677ZM41.6 12.3871V10.3226H22.4V12.3871H41.6ZM19.2 15.4839V19.6129C19.2 20.1817 19.6789 20.6452 20.2667 20.6452H43.7333C44.3211 20.6452 44.8 20.1817 44.8 19.6129V15.4839C44.8 14.9151 44.3211 14.4516 43.7333 14.4516H20.2667C19.6789 14.4516 19.2 14.9151 19.2 15.4839ZM41.6 24.7742V22.7097H22.4V24.7742H41.6ZM20.2667 26.8387C19.6789 26.8387 19.2 27.3022 19.2 27.871V32C19.2 32.5688 19.6789 33.0323 20.2667 33.0323H43.7333C44.3211 33.0323 44.8 32.5688 44.8 32V27.871C44.8 27.3022 44.3211 26.8387 43.7333 26.8387H20.2667Z" fill="#009183"/>
<path d="M51.2 51.6129V49.5484H59.7333V51.6129H51.2Z" fill="#009183"/>
<path d="M59.7333 55.7419V53.6774H51.2V55.7419H59.7333Z" fill="#009183"/>
<path d="M51.2 59.871V57.8064H59.7333V59.871H51.2Z" fill="#009183"/>
<path fill-rule="evenodd" clip-rule="evenodd" d="M46.9333 64V45.4194H64V64H46.9333ZM49.0667 47.4839V61.9355H61.8667V47.4839H49.0667Z" fill="#009183"/>
<path d="M4.26667 51.6129V49.5484H12.8V51.6129H4.26667Z" fill="#009183"/>
<path d="M12.8 53.6774H4.26667V55.7419H12.8V53.6774Z" fill="#009183"/>
<path d="M4.26667 59.871V57.8064H12.8V59.871H4.26667Z" fill="#009183"/>
<path fill-rule="evenodd" clip-rule="evenodd" d="M0 64H17.0667V45.4194H0V64ZM2.13333 47.4839H14.9333V61.9355H2.13333V47.4839Z" fill="#009183"/>
<path d="M36.2667 49.5484H27.7333V51.6129H36.2667V49.5484Z" fill="#009183"/>
<path d="M27.7333 53.6774H36.2667V55.7419H27.7333V53.6774Z" fill="#009183"/>
<path d="M36.2667 57.8064H27.7333V59.871H36.2667V57.8064Z" fill="#009183"/>
<path fill-rule="evenodd" clip-rule="evenodd" d="M40.5333 64H23.4667V45.4194H40.5333V64ZM38.4 47.4839H25.6V61.9355H38.4V47.4839Z" fill="#009183"/>
<path d="M8.53333 41.2903H30.9333V43.3548H33.0667V41.2903H54.4V43.3548H56.5333V39.2258H33.0667V37.1613H30.9333V39.2258H6.4V43.3548H8.53333V41.2903Z" fill="#009183"/>
<path d="M51.2 4.12903H49.0667V6.19355H51.2V4.12903Z" fill="#009183"/>
<path d="M53.3333 4.12903H55.4667V6.19355H53.3333V4.12903Z" fill="#009183"/>
<path d="M55.4667 8.25806H53.3333V10.3226H55.4667V8.25806Z" fill="#009183"/>
<path d="M49.0667 16.5161H51.2V18.5806H49.0667V16.5161Z" fill="#009183"/>
<path d="M55.4667 16.5161H53.3333V18.5806H55.4667V16.5161Z" fill="#009183"/>
<path d="M53.3333 12.3871H55.4667V14.4516H53.3333V12.3871Z" fill="#009183"/>
<path d="M14.9333 28.9032H12.8V30.9677H14.9333V28.9032Z" fill="#009183"/>
<path d="M8.53333 28.9032H10.6667V30.9677H8.53333V28.9032Z" fill="#009183"/>
<path d="M10.6667 24.7742H8.53333V26.8387H10.6667V24.7742Z" fill="#009183"/>
<path d="M12.8 16.5161H14.9333V18.5806H12.8V16.5161Z" fill="#009183"/>
<path d="M10.6667 16.5161H8.53333V18.5806H10.6667V16.5161Z" fill="#009183"/>
<path d="M8.53333 20.6452H10.6667V22.7097H8.53333V20.6452Z" fill="#009183"/>
</svg>
