<svg width="64" height="64" viewBox="0 0 64 64" fill="none" xmlns="http://www.w3.org/2000/svg">
<path d="M50.4268 12.447C50.8171 12.4098 51.2124 12.3871 51.6128 12.3871C58.4434 12.3871 64 17.9438 64 24.7742C64 31.6047 58.4434 37.1613 51.6128 37.1613V35.0969C57.3047 35.0969 61.9355 30.4661 61.9355 24.7742C61.9355 19.0823 57.3047 14.4517 51.6128 14.4517C45.9211 14.4517 41.2903 19.0823 41.2903 24.7742H39.2258C39.2258 19.0586 43.1226 14.2472 48.3953 12.8258C47.5923 6.74171 42.3381 2.06458 36.1292 2.06458C32.2363 2.06458 28.6555 3.87 26.3164 6.92238C29.6526 8.33339 32 11.6398 32 15.4839H29.9355C29.9355 11.4994 26.6931 8.25807 22.7097 8.25807C18.7261 8.25807 15.4839 11.4994 15.4839 15.4839C15.4839 19.4684 18.7261 22.7098 22.7097 22.7098V24.7742C17.5867 24.7742 13.4194 20.606 13.4194 15.4839C13.4194 15.1557 13.438 14.8325 13.4709 14.5136C13.1118 14.4754 12.7495 14.4517 12.3872 14.4517C6.69531 14.4517 2.06445 19.0823 2.06445 24.7742C2.06445 30.4661 6.69531 35.0969 12.3872 35.0969V37.1613C5.55664 37.1613 0 31.6047 0 24.7742C0 17.9438 5.55664 12.3871 12.3872 12.3871C12.9021 12.3871 13.4143 12.4304 13.9221 12.4934C15.1711 8.8351 18.6343 6.19362 22.7097 6.19362C23.2134 6.19362 23.7048 6.24513 24.1868 6.32264C26.8872 2.35669 31.3115 0 36.1292 0C43.3362 0 49.4399 5.40077 50.4268 12.447Z" fill="#009183"/>
<path d="M43.3547 30.9678H41.2903V47.484H39.2258V34.0646H37.1611V47.484H35.0967V36.1291H33.0322V47.484H30.9678V32.0001H28.9031V47.484H26.8386V34.0646H24.7742V47.484H22.7097V38.1937H20.645V47.484H18.5806V49.5486H45.4192V47.484H43.3547V30.9678Z" fill="#009183"/>
<path d="M43.3547 51.6129H45.4192V53.6775H43.3547V51.6129Z" fill="#009183"/>
<path d="M22.7097 51.6129V53.6775H41.2903V51.6129H22.7097Z" fill="#009183"/>
<path d="M18.5806 51.6129H20.645V53.6775H18.5806V51.6129Z" fill="#009183"/>
<path d="M45.4192 57.8065H43.3547V59.8711H45.4192V57.8065Z" fill="#009183"/>
<path d="M33.0322 59.8711V57.8065H41.2903V59.8711H33.0322Z" fill="#009183"/>
<path fill-rule="evenodd" clip-rule="evenodd" d="M49.5483 26.8387V64H14.4517V26.8387H49.5483ZM47.4839 28.9033H16.5161V61.9355H47.4839V28.9033Z" fill="#009183"/>
</svg>
