<svg width="64" height="64" viewBox="0 0 64 64" fill="none" xmlns="http://www.w3.org/2000/svg">
<path d="M64 20.7535L56.8991 19.9639C56.5471 18.8336 56.097 17.7425 55.5541 16.7061L60.0134 11.1308L52.8681 3.98554L47.2929 8.4449C46.2575 7.90296 45.1654 7.45187 44.0351 7.09988L43.2464 0H33.1417L32.352 7.09988C31.2206 7.45187 30.1295 7.90296 29.0942 8.4449L23.519 3.98554L17.0271 10.4784L18.4867 11.9381L23.6717 6.752L28.8898 10.9254L29.4988 10.5775C30.7664 9.8529 32.1373 9.28619 33.5742 8.89393L34.2503 8.70917L34.9884 2.06452H41.3997L42.1378 8.70917L42.8139 8.89393C44.2519 9.28619 45.6227 9.8529 46.8893 10.5775L47.4983 10.9254L52.7164 6.752L57.249 11.2846L53.0746 16.5017L53.4235 17.1107C54.1481 18.3783 54.7148 19.7492 55.1071 21.185L55.2919 21.8622L61.9375 22.6003V29.0106L55.2919 29.7486L55.1071 30.4258C54.7148 31.8617 54.1481 33.2325 53.4235 34.5001L53.0746 35.1092L57.249 40.3262L52.7164 44.8588L47.4983 40.6854L46.8893 41.0333C45.6217 41.7579 44.2508 42.3246 42.8139 42.7169L42.1378 42.9017L41.3987 49.5484H34.9873L34.2493 42.9037L33.5732 42.719C32.1352 42.3267 30.7644 41.76 29.4978 41.0354L28.8888 40.6875L23.6707 44.8609L19.1381 40.3283L23.3125 35.1112L22.9636 34.5022C22.239 33.2346 21.6723 31.8637 21.28 30.4279L19.2877 30.9708C19.6624 32.3448 20.1806 33.665 20.831 34.9068L16.3716 40.4821L23.5169 47.6274L29.0921 43.168C30.1275 43.7099 31.2196 44.161 32.3499 44.513L33.1406 51.6129H43.2454L44.0351 44.513C45.1665 44.161 46.2575 43.7099 47.2929 43.168L52.8681 47.6274L60.0134 40.4821L55.5541 34.9068C56.096 33.8715 56.5471 32.7794 56.8991 31.649L64 30.8594V20.7535Z" fill="#009183"/>
<path d="M35.1102 53.0746L40.3283 57.248L45.5133 52.062L46.9729 53.5216L40.481 60.0145L34.9058 55.5551C33.8704 56.097 32.7794 56.5481 31.648 56.9001L30.8583 64H20.7535L19.9649 56.9001C18.8346 56.5481 17.7425 56.097 16.7071 55.5551L11.1319 60.0145L3.98658 52.8692L8.44593 47.2939C7.90296 46.2576 7.45291 45.1665 7.10091 44.0361L0 43.2465V33.1406L7.10091 32.351C7.45291 31.2207 7.904 30.1285 8.44593 29.0932L3.98658 23.5179L11.1319 16.3726L16.7071 20.832C17.7425 20.2901 18.8336 19.839 19.9649 19.487L20.7546 12.3871H30.8594L31.6501 19.487C32.7804 19.839 33.8725 20.2901 34.9079 20.832L40.4831 16.3726L47.6284 23.5179L43.169 29.0932C43.8194 30.335 44.3375 31.6552 44.7123 33.0292L42.72 33.5721C42.3277 32.1363 41.761 30.7654 41.0364 29.4978L40.6875 28.8888L44.8619 23.6717L40.3293 19.1391L35.1112 23.3125L34.5022 22.9646C33.2356 22.24 31.8648 21.6733 30.4268 21.281L29.7507 21.0963L29.0126 14.4516H22.6013L21.8643 21.0973L21.1881 21.2821C19.7512 21.6743 18.3804 22.241 17.1128 22.9657L16.5037 23.3136L11.2857 19.1401L6.75304 23.6728L10.9275 28.8898L10.5786 29.4988C9.85393 30.7665 9.28723 32.1373 8.89497 33.5732L8.71019 34.2503L2.06452 34.9884V41.3987L8.70813 42.1378L8.8929 42.815C9.28516 44.2509 9.85186 45.6217 10.5765 46.8893L10.9254 47.4983L6.75097 52.7154L11.2836 57.248L16.5017 53.0746L17.1107 53.4225C18.3773 54.1471 19.7481 54.7138 21.1861 55.1061L21.8622 55.2909L22.6003 61.9355H29.0116L29.7497 55.2909L30.4258 55.1061C31.8627 54.7138 33.2335 54.1471 34.5012 53.4225L35.1102 53.0746Z" fill="#009183"/>
<path d="M37.3481 33.6888L35.425 34.4403C33.8684 30.4496 30.0913 27.871 25.8065 27.871C20.1146 27.871 15.4839 32.5017 15.4839 38.1936C15.4839 43.8854 20.1146 48.5161 25.8065 48.5161C27.8152 48.5161 29.7621 47.9391 31.4364 46.847L32.5636 48.577C30.5538 49.888 28.2168 50.5806 25.8065 50.5806C18.976 50.5806 13.4194 45.024 13.4194 38.1936C13.4194 31.3631 18.976 25.8065 25.8065 25.8065C30.9481 25.8065 35.4787 28.9012 37.3481 33.6888Z" fill="#009183"/>
<path d="M38.1936 15.4839C36.5409 15.4839 34.9626 15.8627 33.5019 16.609L32.5626 14.7706C34.3164 13.8735 36.2106 13.4194 38.1936 13.4194C45.024 13.4194 50.5806 18.976 50.5806 25.8065C50.5806 32.6369 45.024 38.1935 38.1936 38.1935C33.0519 38.1935 28.5213 35.0988 26.6519 30.3112L28.575 29.5597C30.1316 33.5504 33.9087 36.129 38.1936 36.129C43.8854 36.129 48.5161 31.4983 48.5161 25.8065C48.5161 20.1146 43.8854 15.4839 38.1936 15.4839Z" fill="#009183"/>
<path d="M39.2258 6.19354H37.1613V8.25806H39.2258V6.19354Z" fill="#009183"/>
<path d="M25.0557 40.4019L23.5959 38.9421L25.0557 37.4822L26.5155 38.9421L25.0557 40.4019Z" fill="#009183"/>
<path d="M39.2258 43.3548H37.1613V45.4194H39.2258V43.3548Z" fill="#009183"/>
<path d="M51.3313 40.4029L49.8714 38.9431L51.3313 37.4833L52.7911 38.9431L51.3313 40.4029Z" fill="#009183"/>
<path d="M57.8064 24.7742H55.7419V26.8387H57.8064V24.7742Z" fill="#009183"/>
<path d="M49.8717 12.6704L51.3316 11.2106L52.7914 12.6704L51.3316 14.1302L49.8717 12.6704Z" fill="#009183"/>
<path d="M26.8387 18.5806H24.7742V20.6452H26.8387V18.5806Z" fill="#009183"/>
<path d="M12.6696 23.5954L14.1294 25.0552L12.6696 26.5151L11.2098 25.0552L12.6696 23.5954Z" fill="#009183"/>
<path d="M8.25806 37.1613H6.19354V39.2258H8.25806V37.1613Z" fill="#009183"/>
<path d="M14.1289 51.3295L12.6691 52.7893L11.2093 51.3295L12.6691 49.8697L14.1289 51.3295Z" fill="#009183"/>
<path d="M24.7742 55.7419V57.8064H26.8387V55.7419H24.7742Z" fill="#009183"/>
<path d="M38.944 23.5968L40.4038 25.0566L38.944 26.5164L37.4842 25.0566L38.944 23.5968Z" fill="#009183"/>
</svg>
