<svg width="64" height="64" viewBox="0 0 64 64" fill="none" xmlns="http://www.w3.org/2000/svg">
<path d="M20.645 4.12903H14.4517V6.19354H20.645V4.12903Z" fill="#009183"/>
<path d="M14.4517 8.25806H20.645V10.3226H14.4517V8.25806Z" fill="#009183"/>
<path fill-rule="evenodd" clip-rule="evenodd" d="M26.8389 8.25806H24.7744V14.4516H10.3228V0H24.7744V6.19354H28.9033V16.5161H26.8389V8.25806ZM12.3872 12.3871H22.71V2.06451H12.3872V12.3871Z" fill="#009183"/>
<path d="M2.06445 12.3871H0V64H59.8711V61.9355H2.06445V12.3871Z" fill="#009183"/>
<path fill-rule="evenodd" clip-rule="evenodd" d="M48.5161 52.5182L42.4795 28.3757C41.0391 22.6085 35.8809 18.5806 29.9351 18.5806C23.9893 18.5806 18.8311 22.6085 17.3911 28.3757L11.3535 52.5192C10.9663 54.0707 9.75488 55.2258 8.25781 55.6005V12.3871H6.19336V57.8065H59.8706V55.7419H52.645C50.688 55.7419 48.9907 54.4165 48.5161 52.5182ZM28.9028 55.7419H11.8975C12.584 54.9884 13.0962 54.0624 13.356 53.0188L19.3931 28.8764C20.52 24.3675 24.3521 21.1282 28.9028 20.6978V55.7419ZM30.9678 20.6978C32.4478 20.8372 33.8525 21.2728 35.1123 21.9551L30.9678 24.3231V20.6978ZM30.9678 26.7004L36.9951 23.2568C37.7524 23.904 38.4258 24.6523 38.9839 25.4926L30.9678 30.0738V26.7004ZM30.9678 32.4521L39.9531 27.3177C40.1631 27.8173 40.3423 28.3365 40.4775 28.8764L40.8091 30.2007L30.9678 35.8256V32.4521ZM30.9678 38.2028L41.3296 32.2818L42.0674 35.2341L30.9678 41.5762V38.2028ZM30.9678 43.9536L42.5879 37.314L43.3257 40.2663L30.9678 47.327V43.9536ZM30.9678 49.7042L43.8447 42.3453L44.583 45.2975L30.9678 53.0787V49.7042ZM30.9678 55.7419V55.456L45.1035 47.3785L45.8413 50.3308L36.3716 55.7419H30.9678ZM40.5303 55.7419L46.3618 52.4108L46.5132 53.0188C46.7734 54.0624 47.2866 54.9884 47.9722 55.7419H40.5303Z" fill="#009183"/>
<path d="M49.5483 6.19354H43.355V8.25806H49.5483V6.19354Z" fill="#009183"/>
<path d="M49.5483 10.3226H43.355V12.3871H49.5483V10.3226Z" fill="#009183"/>
<path fill-rule="evenodd" clip-rule="evenodd" d="M39.2256 10.3226H37.1611V17.5484H35.0967V8.25806H39.2256V2.06451H53.6772V16.5161H39.2256V10.3226ZM51.6128 4.12903H41.29V14.4516H51.6128V4.12903Z" fill="#009183"/>
<path d="M59.8706 34.0645H53.6772V36.129H59.8706V34.0645Z" fill="#009183"/>
<path d="M53.6772 29.9355H59.8706V32H53.6772V29.9355Z" fill="#009183"/>
<path fill-rule="evenodd" clip-rule="evenodd" d="M49.5483 32V25.8065H64V40.2581H49.5483V34.0645H45.4194V32H49.5483ZM51.6128 38.1935H61.9355V27.871H51.6128V38.1935Z" fill="#009183"/>
</svg>
