<svg width="64" height="64" viewBox="0 0 64 64" fill="none" xmlns="http://www.w3.org/2000/svg">
<path d="M6.19355 4.12903H4.12903V6.19355H6.19355V4.12903Z" fill="#009183"/>
<path d="M8.25806 4.12903H10.3226V6.19355H8.25806V4.12903Z" fill="#009183"/>
<path d="M14.4516 4.12903H12.3871V6.19355H14.4516V4.12903Z" fill="#009183"/>
<path fill-rule="evenodd" clip-rule="evenodd" d="M0 0V10.3226H64V0H0ZM61.9355 8.25806H2.06452V2.06452H61.9355V8.25806Z" fill="#009183"/>
<path d="M61.9355 61.9355V12.3871H64V64H0V12.3871H2.06452V61.9355H61.9355Z" fill="#009183"/>
<path fill-rule="evenodd" clip-rule="evenodd" d="M19.2454 25.1881C17.7662 24.3365 15.8689 24.8454 15.0142 26.3226C14.1605 27.8018 14.6694 29.6991 16.1486 30.5538C16.6348 30.8335 17.1665 30.9667 17.6908 30.9667C18.4206 30.9667 19.1257 30.6911 19.6893 30.2142L26.2008 33.9737C25.9499 34.6457 25.8064 35.3703 25.8064 36.129C25.8064 36.8877 25.9499 37.6124 26.2008 38.2844L19.7347 42.017C19.2237 41.4968 18.593 41.1087 17.8705 40.9146C16.8041 40.6276 15.6924 40.7752 14.7365 41.3265C13.7806 41.8777 13.0983 42.7675 12.8134 43.8338C12.5275 44.8991 12.6741 46.0119 13.2253 46.9667C13.7765 47.9216 14.6673 48.6049 15.7326 48.8898C16.0888 48.9858 16.449 49.0333 16.8083 49.0333C17.5236 49.0333 18.2296 48.8444 18.8666 48.4779C19.8214 47.9267 20.5048 47.0369 20.7907 45.9706C20.9848 45.248 20.9631 44.5068 20.768 43.8049L27.2299 40.0743C28.1579 41.1943 29.474 41.9768 30.9677 42.2286V49.7383C29.7693 50.1657 28.9032 51.3012 28.9032 52.6452C28.9032 54.3525 30.2927 55.7419 32 55.7419C33.7073 55.7419 35.0968 54.3525 35.0968 52.6452C35.0968 51.3012 34.2307 50.1657 33.0323 49.7383V42.2297C34.526 41.9778 35.842 41.1954 36.77 40.0754L43.232 43.8059C43.0369 44.5079 43.0152 45.249 43.2093 45.9716C43.4942 47.0369 44.1775 47.9277 45.1324 48.479C45.7693 48.8454 46.4754 49.0343 47.1907 49.0343C47.5489 49.0343 47.9102 48.9868 48.2663 48.8908C49.3316 48.6059 50.2225 47.9226 50.7726 46.9677C51.3249 46.0129 51.4715 44.9001 51.1855 43.8348C50.9006 42.7695 50.2173 41.8787 49.2625 41.3275C48.3066 40.7773 47.1948 40.6286 46.1285 40.9156C45.4059 41.1086 44.7752 41.4978 44.2642 42.0181L37.7982 38.2854C38.0501 37.6124 38.1935 36.8877 38.1935 36.129C38.1935 35.3703 38.05 34.6457 37.7992 33.9737L44.3107 30.2142C44.8743 30.6921 45.5793 30.9667 46.3092 30.9667C46.8335 30.9667 47.3652 30.8335 47.8514 30.5538H47.8524C49.3306 29.6991 49.8385 27.8018 48.9858 26.3226C48.1331 24.8444 46.2359 24.3344 44.7546 25.1881C43.5912 25.8612 43.041 27.1773 43.2702 28.4294L36.77 32.1827C35.842 31.0627 34.526 30.2803 33.0323 30.0284V22.5631C34.8077 22.1017 36.129 20.4996 36.129 18.5806C36.129 16.3035 34.2772 14.4516 32 14.4516C29.7228 14.4516 27.871 16.3035 27.871 18.5806C27.871 20.4996 29.1922 22.1017 30.9677 22.5631V30.0284C29.474 30.2803 28.1579 31.0627 27.2299 32.1827L20.7298 28.4294C20.959 27.1783 20.4088 25.8612 19.2454 25.1881ZM18.5899 28.3871C18.305 28.8805 17.6723 29.0498 17.1809 28.7649C16.6875 28.481 16.5182 27.8472 16.8031 27.3548C16.9941 27.0245 17.3409 26.8387 17.6991 26.8387C17.8736 26.8387 18.0511 26.8831 18.2131 26.977C18.7055 27.2609 18.8748 27.8937 18.5899 28.3871ZM18.7964 45.4379C18.6539 45.9706 18.3122 46.4155 17.8343 46.6911C17.3574 46.9688 16.802 47.041 16.2684 46.8975C15.7358 46.7551 15.2908 46.4134 15.0152 45.9355C14.7396 45.4576 14.6663 44.9012 14.8088 44.3685C14.9512 43.8359 15.2929 43.391 15.7709 43.1154C16.0888 42.9306 16.4418 42.8366 16.8 42.8366C16.9796 42.8366 17.1602 42.8604 17.3378 42.9079C17.8705 43.0503 18.3153 43.392 18.591 43.8699C18.8666 44.3489 18.9399 44.9043 18.7964 45.4379ZM45.41 43.871C45.6857 43.393 46.1305 43.0514 46.6632 42.9089C46.8408 42.8614 47.0214 42.8377 47.201 42.8377C47.5592 42.8377 47.9112 42.9316 48.2302 43.1164C48.7071 43.392 49.0488 43.8369 49.1922 44.3695C49.3357 44.9022 49.2614 45.4586 48.9858 45.9365C48.7102 46.4144 48.2653 46.7561 47.7326 46.8986C47.198 47.04 46.6426 46.9677 46.1657 46.6921C45.6878 46.4165 45.3461 45.9716 45.2036 45.439C45.0601 44.9043 45.1334 44.3489 45.41 43.871ZM45.7869 26.977C45.9489 26.8831 46.1264 26.8387 46.3009 26.8387C46.6581 26.8387 47.0059 27.0245 47.1969 27.3548C47.4818 27.8483 47.3115 28.481 46.8191 28.7649C46.3277 29.0508 45.6939 28.8795 45.41 28.3871C45.1251 27.8937 45.2944 27.2609 45.7869 26.977ZM32 53.6774C31.4312 53.6774 30.9677 53.215 30.9677 52.6452C30.9677 52.0754 31.4312 51.6129 32 51.6129C32.5687 51.6129 33.0323 52.0754 33.0323 52.6452C33.0323 53.215 32.5687 53.6774 32 53.6774ZM29.9355 18.5806C29.9355 17.4421 30.8614 16.5161 32 16.5161C33.1385 16.5161 34.0645 17.4421 34.0645 18.5806C34.0645 19.7192 33.1385 20.6452 32 20.6452C30.8614 20.6452 29.9355 19.7192 29.9355 18.5806ZM32 32C34.2772 32 36.129 33.8519 36.129 36.129C36.129 38.4062 34.2772 40.2581 32 40.2581C29.7228 40.2581 27.871 38.4062 27.871 36.129C27.871 33.8519 29.7228 32 32 32Z" fill="#009183"/>
<path d="M43.3548 12.3871H59.871V14.4516H43.3548V12.3871Z" fill="#009183"/>
<path d="M59.871 16.5161H47.4839V18.5806H59.871V16.5161Z" fill="#009183"/>
<path d="M43.3548 16.5161H45.4194V18.5806H43.3548V16.5161Z" fill="#009183"/>
<path d="M59.871 20.6452H57.8064V22.7097H59.871V20.6452Z" fill="#009183"/>
<path d="M43.3548 20.6452H55.7419V22.7097H43.3548V20.6452Z" fill="#009183"/>
<path d="M18.5806 53.6774H4.12903V55.7419H18.5806V53.6774Z" fill="#009183"/>
<path d="M10.3226 57.8064H12.3871V59.871H10.3226V57.8064Z" fill="#009183"/>
<path d="M18.5806 57.8064H16.5161V59.871H18.5806V57.8064Z" fill="#009183"/>
<path d="M4.12903 57.8064H6.19355V59.871H4.12903V57.8064Z" fill="#009183"/>
<path d="M44.3871 59.871H60.9032V45.4194H53.6774V47.4839H58.8387V57.8064H46.4516V51.6129H44.3871V59.871Z" fill="#009183"/>
<path d="M48.5161 53.6774H56.7742V55.7419H48.5161V53.6774Z" fill="#009183"/>
<path d="M56.7742 49.5484H50.5806V51.6129H56.7742V49.5484Z" fill="#009183"/>
<path d="M12.3871 26.8387H4.12903V12.3871H20.6452V22.7097H18.5806V14.4516H6.19355V24.7742H12.3871V26.8387Z" fill="#009183"/>
<path d="M16.5161 16.5161H8.25806V18.5806H16.5161V16.5161Z" fill="#009183"/>
<path d="M8.25806 20.6452H16.5161V22.7097H8.25806V20.6452Z" fill="#009183"/>
</svg>
