<svg width="64" height="64" viewBox="0 0 64 64" fill="none" xmlns="http://www.w3.org/2000/svg">
<path d="M24.7735 17.8565H26.8379V11.704H24.1686L33.0313 2.89986L39.5271 9.35277L40.9866 7.90284L33.0313 0L19.185 13.7549H24.7735V17.8565Z" fill="#009183"/>
<path d="M10.3223 39.3901H8.25782V25.0344H2.66934L16.5156 11.2795L30.3619 25.0344H24.7735V26.0598H22.709V22.9836H25.3783L16.5156 14.1794L7.65294 22.9836H10.3223V39.3901Z" fill="#009183"/>
<path fill-rule="evenodd" clip-rule="evenodd" d="M5.16114 51.6951C8.00701 51.6951 10.3223 49.3951 10.3223 46.568C10.3223 45.6472 10.057 44.7951 9.62761 44.0475L18.5667 36.277C19.4348 36.9343 20.5042 37.3393 21.6768 37.3393C22.9557 37.3393 24.1118 36.8574 25.015 36.0904L35.649 44.307C35.3063 44.9919 35.0957 45.7528 35.0957 46.568C35.0957 49.3951 37.411 51.6951 40.2569 51.6951C43.1027 51.6951 45.418 49.3951 45.418 46.568C45.418 45.6328 45.1465 44.7674 44.7037 44.0117L55.7454 34.2631C56.2646 34.6497 56.8561 34.9419 57.5013 35.1131C57.9462 35.2321 58.3972 35.2905 58.8452 35.2905C59.7392 35.2905 60.6227 35.0567 61.4175 34.6015C62.6108 33.9165 63.4645 32.8111 63.8216 31.4883C64.1787 30.1655 63.996 28.7833 63.3065 27.5979C62.617 26.4125 61.5042 25.5645 60.1727 25.2097C58.8411 24.8529 57.4497 25.0385 56.2564 25.7214C55.0631 26.4064 54.2095 27.5118 53.8524 28.8345C53.4952 30.1573 53.6779 31.5396 54.3674 32.725L54.37 32.7284C54.3711 32.7298 54.372 32.731 54.3726 32.7321L43.335 42.4776C42.473 41.8357 41.415 41.4409 40.2569 41.4409C38.9779 41.4409 37.8218 41.9229 36.9186 42.6899L26.2846 34.4733C26.6274 33.7883 26.8379 33.0275 26.8379 32.2122C26.8379 29.3852 24.5226 27.0852 21.6768 27.0852C18.8309 27.0852 16.5156 29.3852 16.5156 32.2122C16.5156 33.1331 16.7809 33.9852 17.2103 34.7327L8.27124 42.5033C7.40313 41.846 6.33373 41.4409 5.16114 41.4409C2.31527 41.4409 0 43.741 0 46.568C0 49.3951 2.31527 51.6951 5.16114 51.6951ZM57.2886 27.4974C57.7758 27.2185 58.3064 27.0862 58.8318 27.0862C59.9022 27.0862 60.9458 27.6379 61.5187 28.6233C62.3723 30.0927 61.8645 31.9774 60.3853 32.8254C58.9061 33.6755 57.0089 33.169 56.1552 31.6995C55.3016 30.2301 55.8095 28.3454 57.2886 27.4974ZM40.2569 43.4918C41.9642 43.4918 43.3535 44.872 43.3535 46.568C43.3535 48.264 41.9642 49.6442 40.2569 49.6442C38.5496 49.6442 37.1602 48.264 37.1602 46.568C37.1602 44.872 38.5496 43.4918 40.2569 43.4918ZM21.6768 29.136C23.3841 29.136 24.7735 30.5162 24.7735 32.2122C24.7735 33.9083 23.3841 35.2885 21.6768 35.2885C19.9695 35.2885 18.5801 33.9083 18.5801 32.2122C18.5801 30.5162 19.9695 29.136 21.6768 29.136ZM5.16114 43.4918C6.86843 43.4918 8.25782 44.872 8.25782 46.568C8.25782 48.264 6.86843 49.6442 5.16114 49.6442C3.45384 49.6442 2.06445 48.264 2.06445 46.568C2.06445 44.872 3.45384 43.4918 5.16114 43.4918Z" fill="#009183"/>
<path d="M59.8692 37.3393H57.8047V61.9492H55.7403V38.3647H53.6758V61.9492H51.6114V41.441H49.5469V61.9492H47.4825V49.6442H45.418V61.9492H43.3535V53.7459H41.2891V61.9492H39.2246V53.7459H37.1602V61.9492H35.0957V49.6442H33.0313V61.9492H30.9668V42.4664H28.9024V61.9492H26.8379V39.3901H24.7735V61.9492H22.709V39.3901H20.6445V61.9492H18.5801V39.3901H16.5156V61.9492H14.4512V43.4918H12.3867V61.9492H10.3223V52.7205H8.25782V61.9492H6.19336V53.7459H4.12891V61.9492H0V64H63.9981V61.9492H59.8692V37.3393Z" fill="#009183"/>
<path d="M39.2246 39.3901V17.8565H33.6362L47.4825 4.10164L61.3288 17.8565H55.7403V24.009H53.6758V15.8057H56.3452L47.4825 7.00151L38.6198 15.8057H41.2891V39.3901H39.2246Z" fill="#009183"/>
<path d="M46.4502 31.1868V33.2377H48.5147V31.1868H46.4502Z" fill="#009183"/>
<path d="M46.4502 29.136V27.0852H48.5147V29.136H46.4502Z" fill="#009183"/>
<path d="M46.4502 22.9836V25.0344H48.5147V22.9836H46.4502Z" fill="#009183"/>
<path d="M31.9991 35.2885V33.2377H34.0635V35.2885H31.9991Z" fill="#009183"/>
<path d="M31.9991 29.136V31.1868H34.0635V29.136H31.9991Z" fill="#009183"/>
<path d="M17.5479 27.0852H15.4834V29.136H17.5479V27.0852Z" fill="#009183"/>
<path d="M15.4834 22.9836H17.5479V25.0344H15.4834V22.9836Z" fill="#009183"/>
<path d="M31.9991 25.0344H34.0635V27.0852H31.9991V25.0344Z" fill="#009183"/>
</svg>
