<svg width="64" height="64" viewBox="0 0 64 64" fill="none" xmlns="http://www.w3.org/2000/svg">
<path d="M9.29032 40.065H7.22581V42.1463H9.29032V40.065Z" fill="#009183"/>
<path d="M13.4194 40.065H15.4839V42.1463H13.4194V40.065Z" fill="#009183"/>
<path d="M19.6129 48.3902V50.4715H21.6774V48.3902H19.6129Z" fill="#009183"/>
<path d="M25.8064 48.3902V46.3089H27.871V48.3902H25.8064Z" fill="#009183"/>
<path d="M32 31.7398V33.8211H34.0645V31.7398H32Z" fill="#009183"/>
<path d="M38.1935 30.6992H40.2581V32.7805H38.1935V30.6992Z" fill="#009183"/>
<path d="M46.4516 35.9024H44.3871V37.9837H46.4516V35.9024Z" fill="#009183"/>
<path d="M50.5806 33.8211H52.6452V35.9024H50.5806V33.8211Z" fill="#009183"/>
<path fill-rule="evenodd" clip-rule="evenodd" d="M50.1832 5.80371L50.9781 7.72474L60.4945 3.72761L47.5912 25.6781C47.2268 25.5709 46.85 25.4959 46.4516 25.4959C45.0694 25.4959 43.8503 26.19 43.1009 27.2442L37.1149 24.9225C37.1198 24.8787 37.1257 24.8352 37.1315 24.7917C37.1464 24.681 37.1613 24.5703 37.1613 24.4553C37.1613 22.1596 35.3094 20.2927 33.0323 20.2927C30.7551 20.2927 28.9032 22.1596 28.9032 24.4553C28.9032 25.6042 29.3678 26.6459 30.1172 27.3993L23.838 38.1606C23.4766 38.0566 23.104 37.9827 22.7107 37.9827C21.7167 37.9827 20.8155 38.3532 20.1022 38.9453L15.1897 35.3436C15.3744 34.8722 15.4839 34.3602 15.4839 33.8211C15.4839 31.5255 13.632 29.6585 11.3548 29.6585C9.07768 29.6585 7.22581 31.5255 7.22581 33.8211C7.22581 34.5038 7.40543 35.1386 7.6955 35.7078L2.77886 40.1139C2.31641 38.0899 2.06452 35.9846 2.06452 33.8211C2.06452 18.3279 14.5672 5.72358 29.9355 5.72358C36.2601 5.72358 42.2225 7.80488 47.1773 11.7437L48.4552 10.1099C43.1329 5.87864 36.7288 3.64228 29.9355 3.64228C13.4286 3.64228 0 17.1801 0 33.8211C0 50.4611 13.4286 64 29.9355 64C46.4423 64 59.871 50.4611 59.871 33.8211C59.871 27.8863 58.1574 22.1825 54.9409 17.2581L61.9355 5.35831V14.0488H64V0L50.1832 5.80371ZM46.4516 27.5772C47.5902 27.5772 48.5161 28.5107 48.5161 29.6585C48.5161 30.8064 47.5902 31.7398 46.4516 31.7398C45.313 31.7398 44.3871 30.8064 44.3871 29.6585C44.3871 28.5107 45.313 27.5772 46.4516 27.5772ZM33.0323 22.374C34.1709 22.374 35.0968 23.3074 35.0968 24.4553C35.0968 25.6031 34.1709 26.5366 33.0323 26.5366C31.8936 26.5366 30.9677 25.6031 30.9677 24.4553C30.9677 23.3074 31.8936 22.374 33.0323 22.374ZM22.7097 40.065C23.8483 40.065 24.7742 40.9985 24.7742 42.1463C24.7742 43.2942 23.8483 44.2276 22.7097 44.2276C21.5711 44.2276 20.6452 43.2942 20.6452 42.1463C20.6452 40.9985 21.5711 40.065 22.7097 40.065ZM11.3548 31.7398C12.4934 31.7398 13.4194 32.6733 13.4194 33.8211C13.4194 34.969 12.4934 35.9024 11.3548 35.9024C10.2162 35.9024 9.29032 34.969 9.29032 33.8211C9.29032 32.6733 10.2162 31.7398 11.3548 31.7398ZM57.8064 33.8211C57.8064 39.8767 55.8896 45.4858 52.6452 50.0792V37.9837H50.5806V52.5528H50.687C49.4111 53.9879 47.9917 55.2898 46.4516 56.4365V40.065H44.3871V57.8383C43.0782 58.6417 41.696 59.3327 40.2581 59.9123V34.8618H38.1935V60.6595C36.8578 61.0779 35.4777 61.3963 34.0645 61.6086V35.9024H32V61.8334C31.3177 61.8843 30.6302 61.9187 29.9355 61.9187C29.2408 61.9187 28.5533 61.8843 27.871 61.8334V50.4715H25.8064V61.6086C24.3933 61.3963 23.0132 61.0779 21.6774 60.6595V52.5528H19.6129V59.9123C18.175 59.3316 16.7928 58.6417 15.4839 57.8383V44.2276H13.4194V56.4365C11.8792 55.2898 10.4599 53.9879 9.18397 52.5528H9.29032V44.2276H7.22581V50.0792C5.57523 47.743 4.26733 45.1455 3.38376 42.3565L9.05393 37.2751C9.7115 37.7225 10.5032 37.9837 11.3548 37.9837C12.3489 37.9837 13.2501 37.6133 13.9633 37.0211L18.8759 40.6228C18.6901 41.0953 18.5806 41.6073 18.5806 42.1463C18.5806 44.442 20.4325 46.3089 22.7097 46.3089C24.9868 46.3089 26.8387 44.442 26.8387 42.1463C26.8387 40.9975 26.3742 39.9558 25.6247 39.2013L31.904 28.4399C32.2653 28.544 32.6379 28.6179 33.0312 28.6179C34.4134 28.6179 35.6325 27.9238 36.3819 26.8696L42.368 29.1913L42.3644 29.224L42.3598 29.2622L42.351 29.33C42.3369 29.4377 42.3226 29.5466 42.3226 29.6585C42.3226 31.9542 44.1745 33.8211 46.4516 33.8211C48.7288 33.8211 50.5806 31.9542 50.5806 29.6585C50.5806 28.5149 50.1203 27.4773 49.376 26.7239L53.7631 19.2604C56.4067 23.6436 57.8064 28.6377 57.8064 33.8211Z" fill="#009183"/>
<path fill-rule="evenodd" clip-rule="evenodd" d="M44.3871 15.0894H42.3226V17.1707H40.2581V19.252H42.3226V21.3333H44.3871V19.252H46.4516V17.1707H44.3871V15.0894ZM44.3871 17.1707V19.252H42.3226V17.1707H44.3871Z" fill="#009183"/>
<path fill-rule="evenodd" clip-rule="evenodd" d="M25.8064 9.88618H23.7419V11.9675H21.6774V14.0488H23.7419V16.1301H25.8064V14.0488H27.871V11.9675H25.8064V9.88618ZM25.8064 11.9675V14.0488H23.7419V11.9675H25.8064Z" fill="#009183"/>
<path fill-rule="evenodd" clip-rule="evenodd" d="M17.5484 21.3333H15.4839V23.4146H13.4194V25.4959H15.4839V27.5772H17.5484V25.4959H19.6129V23.4146H17.5484V21.3333ZM17.5484 23.4146V25.4959H15.4839V23.4146H17.5484Z" fill="#009183"/>
</svg>
