<svg width="64" height="64" viewBox="0 0 64 64" fill="none" xmlns="http://www.w3.org/2000/svg">
<path fill-rule="evenodd" clip-rule="evenodd" d="M37.1613 8.25806H2.06452V51.6129H0V5.16129C0 2.31535 2.31537 0 5.16129 0H34.0645C36.9104 0 39.2258 2.31535 39.2258 5.16129V20.6452H37.1613V8.25806ZM5.16129 2.06452C3.45394 2.06452 2.06452 3.45394 2.06452 5.16129V6.19355H37.1613V5.16129C37.1613 3.45394 35.7719 2.06452 34.0645 2.06452H5.16129Z" fill="#009183"/>
<path d="M39.2258 47.4839H37.1613V51.6129H39.2258V47.4839Z" fill="#009183"/>
<path d="M24.7742 57.8064H14.4516V59.871H24.7742V57.8064Z" fill="#009183"/>
<path fill-rule="evenodd" clip-rule="evenodd" d="M0 58.8387C0 61.6846 2.31537 64 5.16129 64H34.0645C36.9104 64 39.2258 61.6846 39.2258 58.8387V53.6774H0V58.8387ZM2.06452 55.7419H37.1613V58.8387C37.1613 60.5461 35.7719 61.9355 34.0645 61.9355H5.16129C3.45394 61.9355 2.06452 60.5461 2.06452 58.8387V55.7419Z" fill="#009183"/>
<path d="M35.0968 10.3226V18.5806H33.0323V12.3871H6.19355V49.5484H33.0323V47.4839H35.0968V51.6129H4.12903V10.3226H35.0968Z" fill="#009183"/>
<path d="M26.8387 18.5806V20.6452C33.6692 20.6452 39.2258 26.2018 39.2258 33.0323C39.2258 39.8627 33.6692 45.4194 26.8387 45.4194C20.0083 45.4194 14.4516 39.8627 14.4516 33.0323H12.3871C12.3871 41.0013 18.8697 47.4839 26.8387 47.4839C34.8077 47.4839 41.2903 41.0013 41.2903 33.0323C41.2903 25.0632 34.8077 18.5806 26.8387 18.5806Z" fill="#009183"/>
<path d="M37.1613 33.0323C37.1613 38.7241 32.5306 43.3548 26.8387 43.3548C21.1468 43.3548 16.5161 38.7241 16.5161 33.0323H18.5806C18.5806 37.5855 22.2854 41.2903 26.8387 41.2903C31.392 41.2903 35.0968 37.5855 35.0968 33.0323C35.0968 28.479 31.392 24.7742 26.8387 24.7742V22.7097C32.5306 22.7097 37.1613 27.3404 37.1613 33.0323Z" fill="#009183"/>
<path fill-rule="evenodd" clip-rule="evenodd" d="M58.8387 27.871H47.4839V25.8064H45.4194V27.871H43.3548V29.9355H45.4194V36.129H43.3548V38.1935H45.4194V40.2581H47.4839V38.1935H58.8387C61.6846 38.1935 64 35.8782 64 33.0323C64 30.1863 61.6846 27.871 58.8387 27.871ZM58.8387 36.129H47.4839V29.9355H58.8387C60.5461 29.9355 61.9355 31.3249 61.9355 33.0323C61.9355 34.7396 60.5461 36.129 58.8387 36.129Z" fill="#009183"/>
<path d="M10.3226 28.9032V23.7419H12.3871V28.9032H14.4516V20.6452H16.5161V28.9032H18.5806V16.5161H20.6452V28.9032H22.7097V19.6129H24.7742V28.9032H26.8387V30.9677H8.25806V28.9032H10.3226Z" fill="#009183"/>
</svg>
