<svg width="64" height="64" viewBox="0 0 64 64" fill="none" xmlns="http://www.w3.org/2000/svg">
<path d="M2.06452 47.4839V61.9355H45.4194V57.8064H47.4839V64H0V45.4194H2.06452V41.2903H0V22.7097H2.06452V18.5806H0V0H47.4839V6.19355H45.4194V2.06452H2.06452V16.5161H16.5161V18.5806H4.12903V22.7097H14.4516V24.7742H2.06452V39.2258H14.4516V41.2903H4.12903V45.4194H16.5161V47.4839H2.06452Z" fill="#009183"/>
<path d="M58.8387 39.2258V37.1613H19.6129V39.2258H58.8387Z" fill="#009183"/>
<path d="M27.871 25.8064H25.8064V35.0968H23.7419V23.7419H29.9355V35.0968H27.871V25.8064Z" fill="#009183"/>
<path d="M34.0645 21.6774H36.129V35.0968H38.1935V19.6129H32V35.0968H34.0645V21.6774Z" fill="#009183"/>
<path d="M44.3871 17.5484H42.3226V35.0968H40.2581V15.4839H46.4516V35.0968H44.3871V17.5484Z" fill="#009183"/>
<path d="M50.5806 23.7419H52.6452V35.0968H54.7097V21.6774H48.5161V35.0968H50.5806V23.7419Z" fill="#009183"/>
<path d="M21.6774 41.2903H23.7419V43.3548H21.6774V41.2903Z" fill="#009183"/>
<path d="M56.7742 41.2903H54.7097V43.3548H56.7742V41.2903Z" fill="#009183"/>
<path d="M25.8064 43.3548V41.2903H52.6452V43.3548H25.8064Z" fill="#009183"/>
<path fill-rule="evenodd" clip-rule="evenodd" d="M14.4516 32C14.4516 18.3401 25.566 7.22581 39.2258 7.22581C52.8856 7.22581 64 18.3401 64 32C64 45.6599 52.8856 56.7742 39.2258 56.7742C25.566 56.7742 14.4516 45.6599 14.4516 32ZM16.5161 32C16.5161 44.5223 26.7035 54.7097 39.2258 54.7097C51.7481 54.7097 61.9355 44.5223 61.9355 32C61.9355 19.4777 51.7481 9.29032 39.2258 9.29032C26.7035 9.29032 16.5161 19.4777 16.5161 32Z" fill="#009183"/>
</svg>
