<svg width="32" height="32" viewBox="0 0 32 32" fill="none" xmlns="http://www.w3.org/2000/svg">
<path fill-rule="evenodd" clip-rule="evenodd" d="M18.5806 4.12903H1.03226V25.8065H0V2.58065C0 1.15768 1.15768 0 2.58065 0H17.0323C18.4552 0 19.6129 1.15768 19.6129 2.58065V10.3226H18.5806V4.12903ZM2.58065 1.03226C1.72697 1.03226 1.03226 1.72697 1.03226 2.58065V3.09677H18.5806V2.58065C18.5806 1.72697 17.8859 1.03226 17.0323 1.03226H2.58065Z" fill="#009183"/>
<path d="M19.6129 23.7419H18.5806V25.8065H19.6129V23.7419Z" fill="#009183"/>
<path d="M12.3871 28.9032H7.22581V29.9355H12.3871V28.9032Z" fill="#009183"/>
<path fill-rule="evenodd" clip-rule="evenodd" d="M0 29.4194C0 30.8423 1.15768 32 2.58065 32H17.0323C18.4552 32 19.6129 30.8423 19.6129 29.4194V26.8387H0V29.4194ZM1.03226 27.871H18.5806V29.4194C18.5806 30.273 17.8859 30.9677 17.0323 30.9677H2.58065C1.72697 30.9677 1.03226 30.273 1.03226 29.4194V27.871Z" fill="#009183"/>
<path d="M17.5484 5.16129V9.29032H16.5161V6.19355H3.09677V24.7742H16.5161V23.7419H17.5484V25.8065H2.06452V5.16129H17.5484Z" fill="#009183"/>
<path d="M13.4194 9.29032V10.3226C16.8346 10.3226 19.6129 13.1009 19.6129 16.5161C19.6129 19.9314 16.8346 22.7097 13.4194 22.7097C10.0041 22.7097 7.22581 19.9314 7.22581 16.5161H6.19355C6.19355 20.5006 9.43484 23.7419 13.4194 23.7419C17.4039 23.7419 20.6452 20.5006 20.6452 16.5161C20.6452 12.5316 17.4039 9.29032 13.4194 9.29032Z" fill="#009183"/>
<path d="M18.5806 16.5161C18.5806 19.3621 16.2653 21.6774 13.4194 21.6774C10.5734 21.6774 8.25806 19.3621 8.25806 16.5161H9.29032C9.29032 18.7928 11.1427 20.6452 13.4194 20.6452C15.696 20.6452 17.5484 18.7928 17.5484 16.5161C17.5484 14.2395 15.696 12.3871 13.4194 12.3871V11.3548C16.2653 11.3548 18.5806 13.6702 18.5806 16.5161Z" fill="#009183"/>
<path fill-rule="evenodd" clip-rule="evenodd" d="M29.4194 13.9355H23.7419V12.9032H22.7097V13.9355H21.6774V14.9677H22.7097V18.0645H21.6774V19.0968H22.7097V20.129H23.7419V19.0968H29.4194C30.8423 19.0968 32 17.9391 32 16.5161C32 15.0932 30.8423 13.9355 29.4194 13.9355ZM29.4194 18.0645H23.7419V14.9677H29.4194C30.273 14.9677 30.9677 15.6625 30.9677 16.5161C30.9677 17.3698 30.273 18.0645 29.4194 18.0645Z" fill="#009183"/>
<path d="M5.16129 14.4516V11.871H6.19355V14.4516H7.22581V10.3226H8.25806V14.4516H9.29032V8.25806H10.3226V14.4516H11.3548V9.80645H12.3871V14.4516H13.4194V15.4839H4.12903V14.4516H5.16129Z" fill="#009183"/>
</svg>
