<svg width="32" height="32" viewBox="0 0 32 32" fill="none" xmlns="http://www.w3.org/2000/svg">
<path d="M10.6667 2.06452H11.7333V3.09677H10.6667V2.06452Z" fill="#009183"/>
<path d="M13.8667 2.06452H12.8V3.09677H13.8667V2.06452Z" fill="#009183"/>
<path d="M20.2667 9.29032V8.25806H21.3333V9.29032H20.2667Z" fill="#009183"/>
<path d="M19.2 8.25806H18.1333V9.29032H19.2V8.25806Z" fill="#009183"/>
<path d="M10.6667 15.4839V14.4516H11.7333V15.4839H10.6667Z" fill="#009183"/>
<path d="M13.8667 14.4516H12.8V15.4839H13.8667V14.4516Z" fill="#009183"/>
<path fill-rule="evenodd" clip-rule="evenodd" d="M21.8667 17.5484H10.1333C9.2512 17.5484 8.53333 16.8537 8.53333 16V13.9355C8.53333 13.0818 9.2512 12.3871 10.1333 12.3871V11.3548C9.2512 11.3548 8.53333 10.6601 8.53333 9.80645V7.74194C8.53333 6.88826 9.2512 6.19355 10.1333 6.19355V5.16129C9.2512 5.16129 8.53333 4.46658 8.53333 3.6129V1.54839C8.53333 0.69471 9.2512 0 10.1333 0H21.8667C22.7488 0 23.4667 0.69471 23.4667 1.54839V3.6129C23.4667 4.46658 22.7488 5.16129 21.8667 5.16129V6.19355C22.7488 6.19355 23.4667 6.88826 23.4667 7.74194V9.80645C23.4667 10.6601 22.7488 11.3548 21.8667 11.3548V12.3871C22.7488 12.3871 23.4667 13.0818 23.4667 13.9355V16C23.4667 16.8537 22.7488 17.5484 21.8667 17.5484ZM9.6 1.54839V3.6129C9.6 3.89729 9.83947 4.12903 10.1333 4.12903H21.8667C22.1605 4.12903 22.4 3.89729 22.4 3.6129V1.54839C22.4 1.264 22.1605 1.03226 21.8667 1.03226H10.1333C9.83947 1.03226 9.6 1.264 9.6 1.54839ZM20.8 6.19355V5.16129H11.2V6.19355H20.8ZM9.6 7.74194V9.80645C9.6 10.0908 9.83947 10.3226 10.1333 10.3226H21.8667C22.1605 10.3226 22.4 10.0908 22.4 9.80645V7.74194C22.4 7.45755 22.1605 7.22581 21.8667 7.22581H10.1333C9.83947 7.22581 9.6 7.45755 9.6 7.74194ZM20.8 12.3871V11.3548H11.2V12.3871H20.8ZM10.1333 13.4194C9.83947 13.4194 9.6 13.6511 9.6 13.9355V16C9.6 16.2844 9.83947 16.5161 10.1333 16.5161H21.8667C22.1605 16.5161 22.4 16.2844 22.4 16V13.9355C22.4 13.6511 22.1605 13.4194 21.8667 13.4194H10.1333Z" fill="#009183"/>
<path d="M25.6 25.8065V24.7742H29.8667V25.8065H25.6Z" fill="#009183"/>
<path d="M29.8667 27.871V26.8387H25.6V27.871H29.8667Z" fill="#009183"/>
<path d="M25.6 29.9355V28.9032H29.8667V29.9355H25.6Z" fill="#009183"/>
<path fill-rule="evenodd" clip-rule="evenodd" d="M23.4667 32V22.7097H32V32H23.4667ZM24.5333 23.7419V30.9677H30.9333V23.7419H24.5333Z" fill="#009183"/>
<path d="M2.13333 25.8065V24.7742H6.4V25.8065H2.13333Z" fill="#009183"/>
<path d="M6.4 26.8387H2.13333V27.871H6.4V26.8387Z" fill="#009183"/>
<path d="M2.13333 29.9355V28.9032H6.4V29.9355H2.13333Z" fill="#009183"/>
<path fill-rule="evenodd" clip-rule="evenodd" d="M0 32H8.53333V22.7097H0V32ZM1.06667 23.7419H7.46667V30.9677H1.06667V23.7419Z" fill="#009183"/>
<path d="M18.1333 24.7742H13.8667V25.8065H18.1333V24.7742Z" fill="#009183"/>
<path d="M13.8667 26.8387H18.1333V27.871H13.8667V26.8387Z" fill="#009183"/>
<path d="M18.1333 28.9032H13.8667V29.9355H18.1333V28.9032Z" fill="#009183"/>
<path fill-rule="evenodd" clip-rule="evenodd" d="M20.2667 32H11.7333V22.7097H20.2667V32ZM19.2 23.7419H12.8V30.9677H19.2V23.7419Z" fill="#009183"/>
<path d="M4.26667 20.6452H15.4667V21.6774H16.5333V20.6452H27.2V21.6774H28.2667V19.6129H16.5333V18.5806H15.4667V19.6129H3.2V21.6774H4.26667V20.6452Z" fill="#009183"/>
<path d="M25.6 2.06452H24.5333V3.09677H25.6V2.06452Z" fill="#009183"/>
<path d="M26.6667 2.06452H27.7333V3.09677H26.6667V2.06452Z" fill="#009183"/>
<path d="M27.7333 4.12903H26.6667V5.16129H27.7333V4.12903Z" fill="#009183"/>
<path d="M24.5333 8.25806H25.6V9.29032H24.5333V8.25806Z" fill="#009183"/>
<path d="M27.7333 8.25806H26.6667V9.29032H27.7333V8.25806Z" fill="#009183"/>
<path d="M26.6667 6.19355H27.7333V7.22581H26.6667V6.19355Z" fill="#009183"/>
<path d="M7.46667 14.4516H6.4V15.4839H7.46667V14.4516Z" fill="#009183"/>
<path d="M4.26667 14.4516H5.33333V15.4839H4.26667V14.4516Z" fill="#009183"/>
<path d="M5.33333 12.3871H4.26667V13.4194H5.33333V12.3871Z" fill="#009183"/>
<path d="M6.4 8.25806H7.46667V9.29032H6.4V8.25806Z" fill="#009183"/>
<path d="M5.33333 8.25806H4.26667V9.29032H5.33333V8.25806Z" fill="#009183"/>
<path d="M4.26667 10.3226H5.33333V11.3548H4.26667V10.3226Z" fill="#009183"/>
</svg>
