<svg width="32" height="32" viewBox="0 0 32 32" fill="none" xmlns="http://www.w3.org/2000/svg">
<path d="M32 10.3768L28.4496 9.98194C28.2735 9.41677 28.0485 8.87123 27.777 8.35303L30.0067 5.56542L26.4341 1.99277L23.6465 4.22245C23.1288 3.95148 22.5827 3.72594 22.0175 3.54994L21.6232 0H16.5708L16.176 3.54994C15.6103 3.72594 15.0648 3.95148 14.5471 4.22245L11.7595 1.99277L8.51355 5.23922L9.24336 5.96903L11.8359 3.376L14.4449 5.46271L14.7494 5.28877C15.3832 4.92645 16.0686 4.6431 16.7871 4.44697L17.1252 4.35458L17.4942 1.03226H20.6999L21.0689 4.35458L21.407 4.44697C22.1259 4.6431 22.8114 4.92645 23.4446 5.28877L23.7492 5.46271L26.3582 3.376L28.6245 5.64232L26.5373 8.25083L26.7117 8.55536C27.0741 9.18916 27.3574 9.87458 27.5536 10.5925L27.6459 10.9311L30.9688 11.3001V14.5053L27.6459 14.8743L27.5536 15.2129C27.3574 15.9308 27.0741 16.6163 26.7117 17.2501L26.5373 17.5546L28.6245 20.1631L26.3582 22.4294L23.7492 20.3427L23.4446 20.5166C22.8108 20.879 22.1254 21.1623 21.407 21.3584L21.0689 21.4508L20.6994 24.7742H17.4937L17.1246 21.4519L16.7866 21.3595C16.0676 21.1634 15.3822 20.88 14.7489 20.5177L14.4444 20.3437L11.8354 22.4304L9.56904 20.1641L11.6563 17.5556L11.4818 17.2511C11.1195 16.6173 10.8361 15.9319 10.64 15.2139L9.64387 15.4854C9.83122 16.1724 10.0903 16.8325 10.4155 17.4534L8.18581 20.241L11.7584 23.8137L14.5461 21.584C15.0637 21.855 15.6098 22.0805 16.175 22.2565L16.5703 25.8064H21.6227L22.0175 22.2565C22.5832 22.0805 23.1288 21.855 23.6465 21.584L26.4341 23.8137L30.0067 20.241L27.777 17.4534C28.048 16.9357 28.2735 16.3897 28.4496 15.8245L32 15.4297V10.3768Z" fill="#009183"/>
<path d="M17.5551 26.5373L20.1641 28.624L22.7566 26.031L23.4865 26.7608L20.2405 30.0072L17.4529 27.7776C16.9352 28.0485 16.3897 28.2741 15.824 28.4501L15.4292 32H10.3768L9.98245 28.4501C9.41729 28.2741 8.87123 28.0485 8.35355 27.7776L5.56594 30.0072L1.99329 26.4346L4.22297 23.647C3.95148 23.1288 3.72645 22.5832 3.55046 22.0181L0 21.6232V16.5703L3.55046 16.1755C3.72645 15.6103 3.952 15.0643 4.22297 14.5466L1.99329 11.759L5.56594 8.18632L8.35355 10.416C8.87123 10.145 9.41677 9.91949 9.98245 9.74349L10.3773 6.19355H15.4297L15.825 9.74349C16.3902 9.91949 16.9363 10.145 17.4539 10.416L20.2415 8.18632L23.8142 11.759L21.5845 14.5466C21.9097 15.1675 22.1688 15.8276 22.3561 16.5146L21.36 16.7861C21.1639 16.0681 20.8805 15.3827 20.5182 14.7489L20.3437 14.4444L22.431 11.8359L20.1646 9.56955L17.5556 11.6563L17.2511 11.4823C16.6178 11.12 15.9324 10.8366 15.2134 10.6405L14.8754 10.5481L14.5063 7.22581H11.3006L10.9321 10.5486L10.5941 10.641C9.87561 10.8372 9.1902 11.1205 8.55639 11.4828L8.25187 11.6568L5.64284 9.57007L3.37652 11.8364L5.46374 14.4449L5.28929 14.7494C4.92697 15.3832 4.64361 16.0686 4.44748 16.7866L4.35509 17.1252L1.03226 17.4942V20.6994L4.35407 21.0689L4.44645 21.4075C4.64258 22.1254 4.92593 22.8108 5.28826 23.4446L5.46271 23.7492L3.37548 26.3577L5.64181 28.624L8.25083 26.5373L8.55536 26.7112C9.18864 27.0736 9.87407 27.3569 10.593 27.553L10.9311 27.6454L11.3001 30.9677H14.5058L14.8748 27.6454L15.2129 27.553C15.9314 27.3569 16.6168 27.0736 17.2506 26.7112L17.5551 26.5373Z" fill="#009183"/>
<path d="M18.6741 16.8444L17.7125 17.2201C16.9342 15.2248 15.0457 13.9355 12.9032 13.9355C10.0573 13.9355 7.74194 16.2508 7.74194 19.0968C7.74194 21.9427 10.0573 24.2581 12.9032 24.2581C13.9076 24.2581 14.881 23.9696 15.7182 23.4235L16.2818 24.2885C15.2769 24.944 14.1084 25.2903 12.9032 25.2903C9.488 25.2903 6.70968 22.512 6.70968 19.0968C6.70968 15.6815 9.488 12.9032 12.9032 12.9032C15.4741 12.9032 17.7394 14.4506 18.6741 16.8444Z" fill="#009183"/>
<path d="M19.0968 7.74194C18.2705 7.74194 17.4813 7.93136 16.751 8.30451L16.2813 7.38529C17.1582 6.93677 18.1053 6.70968 19.0968 6.70968C22.512 6.70968 25.2903 9.488 25.2903 12.9032C25.2903 16.3185 22.512 19.0968 19.0968 19.0968C16.5259 19.0968 14.2607 17.5494 13.3259 15.1556L14.2875 14.7799C15.0658 16.7752 16.9543 18.0645 19.0968 18.0645C21.9427 18.0645 24.2581 15.7492 24.2581 12.9032C24.2581 10.0573 21.9427 7.74194 19.0968 7.74194Z" fill="#009183"/>
<path d="M19.6129 3.09677H18.5806V4.12903H19.6129V3.09677Z" fill="#009183"/>
<path d="M12.5278 20.2009L11.7979 19.471L12.5278 18.7411L13.2577 19.471L12.5278 20.2009Z" fill="#009183"/>
<path d="M19.6129 21.6774H18.5806V22.7097H19.6129V21.6774Z" fill="#009183"/>
<path d="M25.6656 20.2015L24.9357 19.4715L25.6656 18.7416L26.3955 19.4715L25.6656 20.2015Z" fill="#009183"/>
<path d="M28.9032 12.3871H27.871V13.4194H28.9032V12.3871Z" fill="#009183"/>
<path d="M24.9359 6.33521L25.6658 5.6053L26.3957 6.33521L25.6658 7.06512L24.9359 6.33521Z" fill="#009183"/>
<path d="M13.4194 9.29032H12.3871V10.3226H13.4194V9.29032Z" fill="#009183"/>
<path d="M6.3348 11.7977L7.06471 12.5276L6.3348 13.2575L5.60489 12.5276L6.3348 11.7977Z" fill="#009183"/>
<path d="M4.12903 18.5806H3.09677V19.6129H4.12903V18.5806Z" fill="#009183"/>
<path d="M7.06446 25.6647L6.33455 26.3947L5.60464 25.6647L6.33455 24.9348L7.06446 25.6647Z" fill="#009183"/>
<path d="M12.3871 27.871V28.9032H13.4194V27.871H12.3871Z" fill="#009183"/>
<path d="M19.472 11.7984L20.2019 12.5283L19.472 13.2582L18.7421 12.5283L19.472 11.7984Z" fill="#009183"/>
</svg>
