<svg width="96" height="96" viewBox="0 0 96 96" fill="none" xmlns="http://www.w3.org/2000/svg">
<rect width="96" height="96" fill="black" fill-opacity="0"/>
<rect width="96" height="96" fill="black" fill-opacity="0"/>
<rect width="96" height="96" fill="black" fill-opacity="0"/>
<rect width="96" height="96" fill="black" fill-opacity="0"/>
<path d="M32.5161 48C32.5161 56.5378 39.4622 63.4839 48 63.4839C56.5378 63.4839 63.4839 56.5378 63.4839 48C63.4839 39.4622 56.5378 32.5161 48 32.5161C39.4622 32.5161 32.5161 39.4622 32.5161 48ZM48 35.6129C54.8299 35.6129 60.3871 41.17 60.3871 48C60.3871 49.44 60.127 50.8181 59.6733 52.1048L49.1535 46.8464L43.8952 36.3267C45.1819 35.873 46.56 35.6129 48 35.6129ZM41.122 37.7063L46.8464 49.1551L58.2952 54.8795C56.0702 58.1977 52.2859 60.3871 48 60.3871C41.17 60.3871 35.6129 54.8299 35.6129 48C35.6129 43.714 37.8023 39.9298 41.122 37.7063Z" fill="#009183"/>
<path d="M59.8914 12.7819L60.8824 9.84772C54.7198 7.76669 47.9967 7.21856 41.5601 8.25443L42.0524 11.3125C47.9936 10.3571 54.2042 10.8619 59.8914 12.7819Z" fill="#009183"/>
<path d="M18.4831 20.6229C11.5572 28.0877 7.74194 37.81 7.74194 48C7.74194 56.0841 10.128 63.8787 14.6431 70.546L17.2072 68.8103C13.0405 62.657 10.8387 55.4616 10.8387 48C10.8387 38.5935 14.3597 29.6191 20.753 22.7303L18.4831 20.6229Z" fill="#009183"/>
<path d="M55.4338 84.4181C50.081 85.5082 44.3876 85.3905 39.0797 84.0852L38.338 87.0906C41.4812 87.8648 44.7313 88.2581 47.9999 88.2581C50.7112 88.2581 53.4209 87.9871 56.05 87.4529L55.4338 84.4181Z" fill="#009183"/>
<path d="M84.1611 65.7135C86.8785 60.1734 88.2581 54.2152 88.2581 48C88.2581 41.7863 86.8785 35.8266 84.1611 30.2864L81.3817 31.6506C83.8901 36.7618 85.1613 42.2632 85.1613 48C85.1613 53.7368 83.8901 59.2382 81.3817 64.351L84.1611 65.7135Z" fill="#009183"/>
<path d="M94.4516 24.7742C91.9835 24.7742 90.1378 19.7822 88.3541 14.9543C85.7621 7.94477 82.8232 0 75.871 0C68.9187 0 65.9799 7.94477 63.3879 14.9543C61.6041 19.7822 59.7585 24.7742 57.2903 24.7742H55.7419V27.871H96V24.7742H94.4516ZM62.3133 24.7742C63.8818 22.5337 65.071 19.3347 66.2927 16.0289C68.6447 9.67123 71.0741 3.09677 75.871 3.09677C80.6679 3.09677 83.0973 9.67123 85.4493 16.0289C86.671 19.3347 87.8601 22.5337 89.4287 24.7742H62.3133Z" fill="#009183"/>
<path d="M77.4195 18.5806H74.3228V21.6774H77.4195V18.5806Z" fill="#009183"/>
<path d="M77.4195 12.3871H74.3228V15.4839H77.4195V12.3871Z" fill="#009183"/>
<path d="M92.9032 71.2258H89.8065V92.9032H86.7097V68.129H83.6129V92.9032H80.5161V77.4194H77.4194V92.9032H74.3226V74.3226H71.2258V92.9032H68.129V71.2258H65.0323V92.9032H61.9355V80.5161H58.8387V92.9032H55.7419V96H96V92.9032H92.9032V71.2258Z" fill="#009183"/>
<path d="M29.9443 69.6403L23.0973 78.1982L18.1564 73.2573L13.3363 82.9022L8.6911 79.8054L2.13987 92.9032H0V96H40.2581V92.9032H38.2514L29.9443 69.6403ZM5.60206 92.9032L9.8911 84.3252L14.5363 87.4219L19.0065 78.4862L23.3559 82.8356L28.896 75.9097L34.9641 92.9032H5.60206Z" fill="#009183"/>
<path d="M4.64516 27.871C7.20619 27.871 9.29032 25.7868 9.29032 23.2258C9.29032 22.1357 8.89703 21.1448 8.26684 20.352L11.3822 15.3677C11.7058 15.439 12.0418 15.4839 12.3871 15.4839C13.8085 15.4839 15.0689 14.8274 15.9205 13.8178L20.1368 15.3987C20.1368 15.4281 20.129 15.4545 20.129 15.4839C20.129 18.0449 22.2132 20.129 24.7742 20.129C27.3352 20.129 29.4194 18.0449 29.4194 15.4839C29.4194 14.7685 29.2444 14.0996 28.9533 13.4942L33.6217 8.82581C34.2286 9.11535 34.8975 9.29032 35.6129 9.29032C38.1739 9.29032 40.2581 7.20619 40.2581 4.64516C40.2581 2.08413 38.1739 0 35.6129 0C33.0519 0 30.9677 2.08413 30.9677 4.64516C30.9677 5.36052 31.1427 6.02942 31.4338 6.63484L26.7654 11.3032C26.1585 11.0137 25.4895 10.8387 24.7742 10.8387C23.3528 10.8387 22.0924 11.4952 21.2408 12.5048L17.0245 10.9239C17.0245 10.8945 17.0323 10.8681 17.0323 10.8387C17.0323 8.27768 14.9481 6.19355 12.3871 6.19355C9.82606 6.19355 7.74194 8.27768 7.74194 10.8387C7.74194 11.9288 8.13523 12.9197 8.76542 13.7125L5.65006 18.6968C5.32645 18.6255 4.99045 18.5806 4.64516 18.5806C2.08413 18.5806 0 20.6648 0 23.2258C0 25.7868 2.08413 27.871 4.64516 27.871ZM35.6129 3.09677C36.4676 3.09677 37.1613 3.792 37.1613 4.64516C37.1613 5.49832 36.4676 6.19355 35.6129 6.19355C34.7582 6.19355 34.0645 5.49832 34.0645 4.64516C34.0645 3.792 34.7582 3.09677 35.6129 3.09677ZM24.7742 13.9355C25.6289 13.9355 26.3226 14.6307 26.3226 15.4839C26.3226 16.337 25.6289 17.0323 24.7742 17.0323C23.9195 17.0323 23.2258 16.337 23.2258 15.4839C23.2258 14.6307 23.9195 13.9355 24.7742 13.9355ZM12.3871 9.29032C13.2418 9.29032 13.9355 9.98555 13.9355 10.8387C13.9355 11.6919 13.2418 12.3871 12.3871 12.3871C11.5324 12.3871 10.8387 11.6919 10.8387 10.8387C10.8387 9.98555 11.5324 9.29032 12.3871 9.29032ZM4.64516 21.6774C5.49987 21.6774 6.19355 22.3726 6.19355 23.2258C6.19355 24.079 5.49987 24.7742 4.64516 24.7742C3.79045 24.7742 3.09677 24.079 3.09677 23.2258C3.09677 22.3726 3.79045 21.6774 4.64516 21.6774Z" fill="#009183"/>
</svg>
