<svg width="32" height="32" viewBox="0 0 32 32" fill="none" xmlns="http://www.w3.org/2000/svg">
<path d="M25.2134 6.22351C25.4086 6.2049 25.6062 6.19354 25.8064 6.19354C29.2217 6.19354 32 8.97186 32 12.3871C32 15.8023 29.2217 18.5806 25.8064 18.5806V17.5484C28.6523 17.5484 30.9678 15.233 30.9678 12.3871C30.9678 9.54114 28.6523 7.22583 25.8064 7.22583C22.9606 7.22583 20.6451 9.54114 20.6451 12.3871H19.6129C19.6129 9.5293 21.5613 7.1236 24.1976 6.4129C23.7961 3.37085 21.1691 1.03229 18.0646 1.03229C16.1182 1.03229 14.3278 1.935 13.1582 3.46118C14.8263 4.16669 16 5.81989 16 7.74194H14.9678C14.9678 5.74969 13.3466 4.12903 11.3549 4.12903C9.36304 4.12903 7.74194 5.74969 7.74194 7.74194C7.74194 9.73419 9.36304 11.3549 11.3549 11.3549V12.3871C8.79333 12.3871 6.70972 10.303 6.70972 7.74194C6.70972 7.57782 6.71899 7.41626 6.73547 7.25677C6.55591 7.23767 6.37476 7.22583 6.1936 7.22583C3.34766 7.22583 1.03223 9.54114 1.03223 12.3871C1.03223 15.233 3.34766 17.5484 6.1936 17.5484V18.5806C2.77832 18.5806 0 15.8023 0 12.3871C0 8.97186 2.77832 6.19354 6.1936 6.19354C6.45105 6.19354 6.70715 6.21521 6.96106 6.2467C7.58557 4.41754 9.31714 3.0968 11.3549 3.0968C11.6067 3.0968 11.8524 3.12256 12.0934 3.16132C13.4436 1.17834 15.6558 0 18.0646 0C21.6681 0 24.72 2.70038 25.2134 6.22351Z" fill="#009183"/>
<path d="M21.6774 15.4839H20.6451V23.7419H19.6129V17.0323H18.5806V23.7419H17.5483V18.0645H16.5161V23.7419H15.4839V16H14.4515V23.7419H13.4193V17.0323H12.3871V23.7419H11.3549V19.0968H10.3225V23.7419H9.29028V24.7742H22.7096V23.7419H21.6774V15.4839Z" fill="#009183"/>
<path d="M21.6774 25.8064H22.7096V26.8387H21.6774V25.8064Z" fill="#009183"/>
<path d="M11.3549 25.8064V26.8387H20.6451V25.8064H11.3549Z" fill="#009183"/>
<path d="M9.29028 25.8064H10.3225V26.8387H9.29028V25.8064Z" fill="#009183"/>
<path d="M22.7096 28.9032H21.6774V29.9355H22.7096V28.9032Z" fill="#009183"/>
<path d="M16.5161 29.9355V28.9032H20.6451V29.9355H16.5161Z" fill="#009183"/>
<path fill-rule="evenodd" clip-rule="evenodd" d="M24.7742 13.4193V31.9999H7.22583V13.4193H24.7742ZM23.7419 14.4516H8.25806V30.9677H23.7419V14.4516Z" fill="#009183"/>
</svg>
